<svg width="45" height="45" viewBox="0 0 45 45" fill="none" xmlns="http://www.w3.org/2000/svg">
<path d="M13.5 0H31.5C35.0804 0 38.5142 1.42232 41.0459 3.95406C43.5777 6.4858 45 9.91958 45 13.5V31.5C45 35.0804 43.5777 38.5142 41.0459 41.0459C38.5142 43.5777 35.0804 45 31.5 45H13.5C9.91958 45 6.4858 43.5777 3.95406 41.0459C1.42232 38.5142 0 35.0804 0 31.5L0 13.5C0 9.91958 1.42232 6.4858 3.95406 3.95406C6.4858 1.42232 9.91958 0 13.5 0ZM27 20.25C26.4033 20.25 25.831 20.4871 25.409 20.909C24.9871 21.331 24.75 21.9033 24.75 22.5C24.75 23.0967 24.9871 23.669 25.409 24.091C25.831 24.5129 26.4033 24.75 27 24.75H33.75C34.3467 24.75 34.919 24.5129 35.341 24.091C35.7629 23.669 36 23.0967 36 22.5C36 21.9033 35.7629 21.331 35.341 20.909C34.919 20.4871 34.3467 20.25 33.75 20.25H27ZM22.5 29.25C21.9033 29.25 21.331 29.4871 20.909 29.909C20.4871 30.331 20.25 30.9033 20.25 31.5C20.25 32.0967 20.4871 32.669 20.909 33.091C21.331 33.5129 21.9033 33.75 22.5 33.75H33.75C34.3467 33.75 34.919 33.5129 35.341 33.091C35.7629 32.669 36 32.0967 36 31.5C36 30.9033 35.7629 30.331 35.341 29.909C34.919 29.4871 34.3467 29.25 33.75 29.25H22.5ZM22.5 11.25C21.9033 11.25 21.331 11.4871 20.909 11.909C20.4871 12.331 20.25 12.9033 20.25 13.5C20.25 14.0967 20.4871 14.669 20.909 15.091C21.331 15.5129 21.9033 15.75 22.5 15.75H33.75C34.3467 15.75 34.919 15.5129 35.341 15.091C35.7629 14.669 36 14.0967 36 13.5C36 12.9033 35.7629 12.331 35.341 11.909C34.919 11.4871 34.3467 11.25 33.75 11.25H22.5ZM13.113 23.0468L11.5222 21.456C11.3147 21.2411 11.0664 21.0697 10.7919 20.9518C10.5174 20.8339 10.2222 20.7718 9.9234 20.7692C9.62465 20.7666 9.32837 20.8235 9.05185 20.9367C8.77534 21.0498 8.52412 21.2169 8.31286 21.4281C8.1016 21.6394 7.93453 21.8906 7.8214 22.1671C7.70827 22.4436 7.65134 22.7399 7.65394 23.0387C7.65653 23.3374 7.7186 23.6327 7.83652 23.9072C7.95444 24.1817 8.12585 24.4299 8.34075 24.6375L11.5222 27.819C11.7312 28.0282 11.9794 28.1942 12.2525 28.3074C12.5257 28.4206 12.8184 28.4789 13.1141 28.4789C13.4098 28.4789 13.7026 28.4206 13.9757 28.3074C14.2489 28.1942 14.497 28.0282 14.706 27.819L21.069 21.456C21.4915 21.0341 21.7291 20.4617 21.7295 19.8646C21.7299 19.2675 21.4931 18.6947 21.0712 18.2723C20.6494 17.8498 20.0769 17.6122 19.4798 17.6117C18.8828 17.6113 18.31 17.8481 17.8875 18.27L13.113 23.0445V23.0468Z" fill="white"/>
</svg>
