<svg width="237" height="242" viewBox="0 0 237 242" fill="none" xmlns="http://www.w3.org/2000/svg">
<g clip-path="url(#clip0_33_37)">
<path d="M118.291 231.794C114.347 233.764 110.826 234.725 106.314 234.725C96.0794 234.725 86.1113 229.762 76.4735 224.962C68.3636 220.924 60.7053 217.11 54.1482 217.11C52.7209 217.11 51.4178 217.285 50.1675 217.646L48.9542 217.98L48.9148 216.719C48.5735 209.588 40.2737 201.189 31.4874 192.297C20.1049 180.782 8.42191 169.12 11.8402 157.724C0.850907 152.038 3.40351 135.111 5.94561 118.961C7.77961 107.301 9.67821 95.5211 5.69701 89.5887L5.09911 88.695L6.00681 88.1417C12.1424 84.3883 16.2546 74.6839 20.6064 64.702C27.0745 49.8751 34.1718 33.2915 50.2173 33.5138C50.6148 18.8425 70.4644 15.1169 89.4494 11.7349C99.9864 9.85782 110.879 7.91471 117.863 4.09671L118.291 3.86343L118.718 4.09671C125.702 7.91471 136.595 9.85782 147.132 11.7349C166.117 15.1169 185.966 18.8425 186.364 33.5138C202.409 33.2915 209.507 49.8751 215.975 64.702C220.326 74.6839 224.439 84.3883 230.574 88.1417L231.482 88.695L230.884 89.5887C226.903 95.5211 228.801 107.301 230.636 118.961C233.178 135.111 235.73 152.038 224.741 157.724C228.159 169.12 216.476 180.782 205.094 192.297C196.307 201.189 188.008 209.588 187.666 216.719L187.627 217.98L186.414 217.646C185.163 217.285 183.86 217.11 182.433 217.11C175.876 217.11 168.217 220.924 160.108 224.962C150.47 229.762 140.502 234.725 130.268 234.725C125.755 234.725 122.234 233.764 118.291 231.794ZM118.291 0.0142212L116.906 0.772522C110.099 4.49492 99.2017 6.43671 88.6583 8.31351C69.3983 11.7448 49.5073 15.2901 47.5865 30.1984C31.2907 31.176 23.8795 48.1675 17.3097 63.2288C13.02 73.0673 8.96701 82.3612 3.26801 85.8476L0.594007 87.4786L2.34611 90.0874C5.95631 95.4701 4.00721 107.854 2.28691 118.787C-0.297193 135.208 -2.96319 152.166 7.87541 159.154C5.43991 171.316 17.289 183.303 28.7616 194.912C37.4104 203.66 45.5793 211.925 45.8894 218.411L46.0294 222.143L49.6703 221.147C50.7636 220.833 51.9082 220.679 53.1682 220.679C59.3596 220.679 66.9321 224.45 74.9556 228.446C84.9463 233.42 95.2757 238.56 106.125 238.56C110.688 238.56 114.276 237.659 118.291 235.802C122.305 237.659 125.893 238.56 130.456 238.56C141.305 238.56 151.635 233.42 161.625 228.446C169.649 224.45 177.221 220.679 183.413 220.679C184.673 220.679 185.817 220.833 186.911 221.147L190.552 222.143L190.692 218.411C191.002 211.925 199.171 203.66 207.819 194.912C219.292 183.303 231.141 171.316 228.706 159.154C239.544 152.166 236.878 135.208 234.294 118.787C232.574 107.854 230.625 95.4701 234.235 90.0874L235.987 87.4786L233.313 85.8476C227.614 82.3612 223.561 73.0673 219.271 63.2288C212.702 48.1675 205.29 31.176 188.995 30.1984C187.074 15.2901 167.183 11.7448 147.923 8.31351C137.379 6.43671 126.482 4.49492 119.676 0.772522L118.291 0.0142212Z" fill="#005D64"/>
<path d="M118.291 231.794C114.347 233.764 110.826 234.725 106.314 234.725C96.0794 234.725 86.1116 229.762 76.4738 224.962C68.3639 220.924 60.7055 217.11 54.1482 217.11C52.7209 217.11 51.4181 217.285 50.1672 217.646L48.9542 217.98L48.9148 216.719C48.5733 209.587 40.2737 201.189 31.4874 192.298C20.1049 180.782 8.42191 169.12 11.8402 157.724C0.851114 152.037 3.40352 135.111 5.94562 118.961C7.77962 107.301 9.67882 95.5208 5.69732 89.5887L5.09912 88.695L6.00712 88.1417C12.1427 84.3883 16.2546 74.6836 20.6064 64.702C27.0745 49.8754 34.1718 33.2918 50.2173 33.5138C50.6148 18.8422 70.4644 15.1172 89.4494 11.7352C99.9864 9.8578 110.879 7.91468 117.863 4.09668L118.291 3.8634L118.719 4.09668C125.703 7.91468 136.595 9.8578 147.132 11.7352C166.117 15.1172 185.966 18.8422 186.364 33.5138C202.409 33.2918 209.507 49.8754 215.975 64.702C220.326 74.6836 224.438 84.3883 230.574 88.1417L231.482 88.695L230.884 89.5887C226.902 95.5208 228.801 107.301 230.636 118.961C233.178 135.111 235.73 152.037 224.741 157.724C228.159 169.12 216.476 180.782 205.094 192.298C196.307 201.189 188.008 209.587 187.666 216.719L187.627 217.98L186.414 217.646C185.163 217.285 183.86 217.11 182.433 217.11C175.876 217.11 168.217 220.924 160.107 224.962C150.469 229.762 140.502 234.725 130.268 234.725C125.755 234.725 122.234 233.764 118.291 231.794Z" fill="#FFDD02"/>
<path d="M118.291 11.365C111.517 15.0058 101.216 16.8435 91.2536 18.6203C73.7516 21.7415 55.2964 25.3423 54.9463 38.2658L54.9137 39.4314L53.7481 39.4164C39.3867 39.2627 32.9752 54.3612 27.0052 68.0576C22.853 77.5866 18.8168 86.9579 12.8036 90.775C16.6715 96.8264 14.9761 107.978 13.2217 119.127C10.8849 133.997 8.57767 149.667 18.213 154.655L19.0846 155.106L18.8023 156.046C15.7695 166.161 26.5352 176.875 37.0518 187.525C45.4134 195.991 53.2662 203.946 53.8068 211.074C55.0027 210.759 56.2953 210.656 57.6426 210.656C64.1167 210.656 71.4799 214.324 79.2727 218.208C88.2764 222.695 96.9949 227.327 106.397 227.327C110.479 227.327 114.195 226.461 117.762 224.679L118.291 224.414L118.819 224.679C122.386 226.461 126.102 227.327 130.185 227.327C139.587 227.327 148.305 222.695 157.309 218.208C165.101 214.324 172.465 210.656 178.939 210.656C180.286 210.656 181.579 210.759 182.775 211.074C183.315 203.946 191.168 195.991 199.53 187.525C210.046 176.875 220.812 166.161 217.779 156.046L217.497 155.106L218.368 154.655C228.004 149.667 225.697 133.997 223.36 119.127C221.605 107.978 219.91 96.8264 223.778 90.775C217.765 86.9579 213.728 77.5866 209.576 68.0576C203.606 54.3612 197.195 39.2627 182.833 39.4164L181.668 39.4314L181.635 38.2658C181.285 25.3423 162.83 21.7415 145.328 18.6203C135.365 16.8435 125.065 15.0058 118.291 11.365ZM118.291 227.052C114.549 228.828 110.653 229.692 106.397 229.692C96.4373 229.692 87.4673 224.931 78.2304 220.33C70.6814 216.567 63.5616 213.02 57.6426 213.02C56.4053 213.02 55.2814 213.172 54.2065 213.481L51.6139 214.195L51.5118 211.523C51.2105 205.225 43.5145 197.436 35.3685 189.187C24.6629 178.344 13.6424 167.297 16.2199 156.141C6.03477 150.001 8.48187 134.052 10.8849 118.76C12.5868 107.95 14.3434 97.0076 10.8375 91.7748L9.58487 89.9059L11.4952 88.7386C16.9782 85.3821 20.7951 76.3909 24.8333 67.1219C30.9507 53.0845 37.6969 37.3933 52.8643 36.849C54.1906 22.9615 72.8842 19.4936 90.8199 16.2967C100.701 14.5321 110.901 12.7129 117.333 9.19138L118.291 8.66748L119.248 9.19138C125.68 12.7129 135.88 14.5321 145.761 16.2967C163.697 19.4936 182.391 22.9615 183.717 36.849C198.884 37.3933 205.631 53.0845 211.748 67.1219C215.786 76.3909 219.603 85.3821 225.086 88.7386L226.996 89.9059L225.744 91.7748C222.238 97.0076 223.995 107.95 225.697 118.76C228.099 134.052 230.547 150.001 220.361 156.141C222.939 167.297 211.918 178.344 201.213 189.187C193.067 197.436 185.371 205.225 185.07 211.523L184.967 214.195L182.375 213.481C181.3 213.172 180.176 213.02 178.939 213.02C173.02 213.02 165.9 216.567 158.351 220.33C149.114 224.931 140.144 229.692 130.185 229.692C125.928 229.692 122.032 228.828 118.291 227.052Z" fill="#005D64"/>
<path d="M29.414 131.836L36.5842 130.066L36.7461 130.721C36.7316 130.806 36.7243 130.886 36.7248 130.961C36.7254 131.037 36.7282 131.108 36.7336 131.177C36.7413 131.209 36.75 131.242 36.7577 131.275C36.7659 131.308 36.7798 131.339 36.7985 131.369C36.8206 131.41 36.8427 131.451 36.8651 131.492C36.8872 131.533 36.9094 131.574 36.9309 131.615L37.1098 132.266L30.2097 133.97C29.4219 134.164 28.7756 134.408 28.2688 134.701C27.7622 134.994 27.3869 135.345 27.1414 135.754C26.9215 136.121 26.7763 136.51 26.7052 136.922C26.6338 137.334 26.6406 137.761 26.7259 138.204C26.8835 138.745 27.1018 139.192 27.3798 139.547C27.6582 139.901 27.9848 140.159 28.3589 140.322C28.7836 140.495 29.2703 140.593 29.8182 140.614C30.3664 140.635 30.9764 140.58 31.6483 140.449L38.717 138.704L38.8791 139.359C38.8619 139.387 38.8519 139.407 38.8491 139.419C38.8457 139.431 38.842 139.45 38.8358 139.475C38.8273 139.488 38.8222 139.504 38.8208 139.522C38.8191 139.539 38.8196 139.554 38.8222 139.565C38.8276 139.587 38.8352 139.605 38.8449 139.62C38.8548 139.635 38.8664 139.647 38.8806 139.655C38.897 139.674 38.91 139.691 38.92 139.706C38.9293 139.721 38.9356 139.734 38.9384 139.745L39.1175 140.396L32.3518 142.067C31.5641 142.261 30.8364 142.345 30.1677 142.319C29.499 142.293 28.8842 142.158 28.3224 141.914C27.7498 141.673 27.2724 141.274 26.8906 140.72C26.5096 140.164 26.2106 139.45 25.9946 138.576L25.8327 137.92C25.8273 137.899 25.8208 137.874 25.8148 137.846C25.8077 137.819 25.8015 137.794 25.7964 137.773C25.791 137.751 25.7848 137.726 25.7783 137.699C25.7712 137.671 25.7652 137.647 25.7598 137.625C25.5359 136.718 25.4662 135.93 25.5518 135.259C25.6368 134.589 25.882 134.036 26.2877 133.599C26.7066 133.171 27.1726 132.81 27.6843 132.516C28.1965 132.221 28.7617 131.997 29.3805 131.845L29.414 131.836ZM28.6608 146.751L39.8381 142.267L40.0893 142.894L40.3911 143.646L35.3506 153.672L43.1572 150.54L43.4086 151.167C43.3848 151.201 43.3735 151.236 43.3757 151.271C43.3772 151.307 43.3791 151.342 43.3809 151.378C43.4086 151.416 43.4339 151.448 43.4574 151.475C43.4803 151.502 43.5016 151.524 43.5209 151.54L43.7885 152.16L32.6276 156.638L32.3759 156.012L32.131 155.401L37.3567 145.136L29.3083 148.365L29.0571 147.738C29.0526 147.728 29.0483 147.717 29.0446 147.707C29.0401 147.696 29.0358 147.686 29.0319 147.676C29.0234 147.655 29.02 147.638 29.0208 147.625C29.0222 147.613 29.0208 147.601 29.0169 147.59C29.0081 147.57 29.001 147.551 28.9945 147.536C28.9885 147.52 28.9757 147.504 28.9562 147.487C28.948 147.467 28.9403 147.448 28.9344 147.433C28.9281 147.417 28.9208 147.399 28.9123 147.378L28.6608 146.751ZM45.3716 154.745C45.3671 154.811 45.3688 154.87 45.3767 154.924C45.3844 154.976 45.3991 155.036 45.4204 155.101C45.4258 155.111 45.4292 155.118 45.4323 155.124C45.4348 155.128 45.4385 155.136 45.4439 155.146C45.449 155.156 45.4527 155.163 45.4555 155.168C45.4584 155.173 45.4623 155.181 45.4671 155.191C45.5083 155.245 45.5516 155.296 45.5958 155.343C45.6395 155.389 45.6772 155.43 45.7084 155.465L46.0363 156.055L35.3758 161.621L35.0634 161.022C35.0427 160.982 35.0206 160.934 34.9971 160.876C34.9733 160.818 34.954 160.762 34.9381 160.707C34.9328 160.697 34.9288 160.689 34.9265 160.684C34.9237 160.679 34.9197 160.672 34.9146 160.662C34.9095 160.652 34.9041 160.642 34.8993 160.632C34.8936 160.622 34.8885 160.612 34.8834 160.602C34.842 160.548 34.8069 160.499 34.7786 160.457C34.7499 160.415 34.7224 160.369 34.6963 160.319L34.3837 159.72L45.0592 154.146L45.3716 154.745ZM46.7736 157.723C46.7872 157.808 46.8068 157.886 46.8312 157.956C46.8561 158.028 46.8848 158.1 46.9182 158.172C46.9301 158.191 46.9397 158.205 46.9454 158.214C46.9517 158.224 46.9576 158.233 46.9638 158.243C46.9757 158.262 46.9865 158.279 46.9956 158.293C47.0049 158.307 47.0126 158.319 47.0183 158.328C47.065 158.379 47.1135 158.428 47.1645 158.475C47.2156 158.522 47.2643 158.571 47.3105 158.622L47.6906 159.18L42.0171 167.225C42.1668 167.223 42.3272 167.21 42.4981 167.187C42.6696 167.164 42.8542 167.135 43.0529 167.101C43.4398 167.04 43.8409 166.972 44.2556 166.899C44.6706 166.827 45.104 166.746 45.5559 166.656C45.7033 166.628 45.8512 166.596 46.0006 166.56C46.1497 166.525 46.3031 166.489 46.4601 166.456C46.5307 166.437 46.6027 166.421 46.6764 166.407C46.7504 166.393 46.83 166.378 46.9171 166.363C46.9874 166.344 47.0619 166.326 47.1402 166.309C47.219 166.292 47.2938 166.274 47.3644 166.255C47.749 166.168 48.1249 166.084 48.4926 166.002C48.8599 165.92 49.2248 165.829 49.5876 165.729C49.9476 165.645 50.292 165.56 50.6225 165.475C50.9533 165.389 51.2649 165.306 51.5571 165.225L51.9375 165.783C51.9358 165.825 51.9398 165.863 51.9483 165.897C51.9562 165.932 51.9681 165.971 51.9823 166.015C51.9885 166.025 51.9934 166.032 51.9959 166.037C51.999 166.041 52.0038 166.049 52.0098 166.058C52.0067 166.074 52.0064 166.084 52.0092 166.089C52.0123 166.093 52.0169 166.1 52.0228 166.11C52.0353 166.129 52.0509 166.149 52.0713 166.169C52.0911 166.189 52.1152 166.211 52.143 166.233C52.1657 166.246 52.1861 166.263 52.2068 166.283C52.2266 166.303 52.2473 166.32 52.2697 166.333L52.6493 166.891L39.9943 169.188L39.6289 168.62C39.623 168.611 39.6167 168.602 39.6108 168.592C39.6045 168.583 39.6062 168.575 39.6162 168.569C39.6102 168.559 39.6062 168.548 39.6048 168.535C39.604 168.523 39.6 168.512 39.5943 168.502C39.5921 168.477 39.5855 168.451 39.5751 168.424C39.5649 168.398 39.5538 168.375 39.5416 168.355L39.9212 168.914C39.9056 168.911 39.8928 168.902 39.8843 168.888C39.8747 168.874 39.8622 168.866 39.8463 168.862C39.8341 168.843 39.8225 168.83 39.8117 168.825C39.8007 168.818 39.7891 168.806 39.7769 168.786C39.7488 168.764 39.723 168.74 39.7003 168.715C39.6774 168.69 39.6564 168.663 39.6383 168.635L39.2729 168.067L46.4083 157.155L46.7736 157.723ZM44.4864 175.483L53.418 167.613L53.8642 168.12L57.9047 172.706C57.8537 172.735 57.8092 172.76 57.7712 172.778C57.7338 172.796 57.6978 172.813 57.6641 172.827C57.6556 172.835 57.6428 172.842 57.6261 172.85C57.6094 172.857 57.5966 172.864 57.5881 172.872C57.5634 172.879 57.5467 172.886 57.5376 172.894C57.5291 172.902 57.5164 172.913 57.4988 172.928L57.473 172.951L57.4203 172.997C57.3772 173.036 57.3403 173.068 57.3097 173.095C57.2794 173.122 57.2505 173.155 57.223 173.194C57.2054 173.209 57.1898 173.227 57.1762 173.246C57.1629 173.266 57.1513 173.287 57.1408 173.311C57.1224 173.342 57.1065 173.368 57.0929 173.387C57.0787 173.407 57.0671 173.429 57.0574 173.453L56.624 172.934C56.5296 172.792 56.4358 172.65 56.3411 172.508C56.2467 172.366 56.1407 172.22 56.0231 172.068C55.9128 171.925 55.7986 171.782 55.6798 171.64C55.5613 171.496 55.4391 171.353 55.3124 171.21C55.3051 171.201 55.3017 171.197 55.3017 171.197C55.2626 171.171 55.2305 171.143 55.2044 171.113C55.1786 171.083 55.1506 171.052 55.1211 171.018C55.0911 170.985 55.0613 170.951 55.0312 170.917C55.002 170.883 54.976 170.854 54.9536 170.828C54.9241 170.794 54.8921 170.759 54.8583 170.72C54.8249 170.682 54.79 170.642 54.7526 170.6C54.7138 170.574 54.678 170.542 54.6446 170.504C54.6109 170.466 54.5797 170.43 54.5499 170.396C54.4827 170.32 54.4178 170.247 54.3543 170.175C54.2911 170.103 54.2296 170.033 54.1698 169.966L51.0151 172.746L52.2425 174.139L53.3959 175.238L53.8421 175.744C53.7917 175.774 53.7452 175.797 53.7035 175.81C53.6618 175.825 53.6244 175.839 53.5912 175.854C53.549 175.876 53.5124 175.901 53.4821 175.927C53.4515 175.954 53.4189 175.983 53.3846 176.013C53.3667 176.029 53.35 176.044 53.3324 176.06C53.3146 176.075 53.2976 176.09 53.2803 176.105C53.2539 176.129 53.2341 176.15 53.2205 176.169C53.2069 176.189 53.1913 176.206 53.1737 176.221C53.1465 176.261 53.119 176.304 53.0909 176.351C53.0629 176.398 53.0314 176.445 52.9951 176.491L52.5614 175.973L51.3618 174.375L50.402 173.286L46.6988 176.548C46.7337 176.623 46.7765 176.698 46.8278 176.773C46.8782 176.848 46.9369 176.924 47.0038 177C47.0546 177.075 47.1098 177.146 47.1699 177.214C47.2289 177.281 47.2927 177.353 47.359 177.429C47.3967 177.471 47.4299 177.509 47.4596 177.543C47.4897 177.577 47.5237 177.607 47.562 177.633C47.5917 177.667 47.6237 177.703 47.6569 177.741C47.6901 177.779 47.7218 177.815 47.7519 177.849C47.9092 178.009 48.0634 178.167 48.2134 178.32C48.3633 178.473 48.513 178.625 48.6635 178.778C48.8146 178.914 48.9526 179.041 49.0774 179.156C49.2021 179.271 49.3132 179.375 49.4107 179.469L49.8708 179.964C49.8197 179.994 49.7696 180.02 49.7191 180.042C49.6687 180.064 49.6182 180.089 49.5669 180.119C49.5249 180.142 49.4867 180.168 49.4518 180.199C49.4167 180.229 49.3824 180.26 49.3475 180.291C49.3126 180.321 49.278 180.352 49.2432 180.382C49.2083 180.413 49.1777 180.448 49.1502 180.487C49.1227 180.526 49.102 180.563 49.087 180.599C49.0714 180.635 49.0637 180.66 49.0623 180.677L48.6156 180.17L44.4864 175.483ZM50.8028 182.618L59.0814 173.872L59.5718 174.336L62.5637 177.168C62.9566 177.572 63.2582 177.969 63.4694 178.361C63.6806 178.751 63.792 179.136 63.8053 179.516C63.8101 179.903 63.7449 180.267 63.608 180.609C63.4711 180.95 63.2631 181.267 62.9844 181.562C62.7134 181.848 62.43 182.07 62.1332 182.228C61.8367 182.386 61.5268 182.471 61.2043 182.485C60.8896 182.506 60.5846 182.497 60.2892 182.457C59.9944 182.417 59.7166 182.345 59.457 182.243C59.3348 182.192 59.216 182.142 59.0978 182.095C58.9805 182.047 58.8685 181.989 58.7622 181.921C58.657 181.869 58.5573 181.81 58.4637 181.745C58.3696 181.68 58.286 181.622 58.2129 181.568L57.4736 188.932L56.9826 188.467C56.9497 188.437 56.9197 188.407 56.8911 188.38C56.8624 188.354 56.8355 188.32 56.8108 188.281C56.7782 188.25 56.7496 188.219 56.7247 188.188C56.7003 188.156 56.6796 188.125 56.6631 188.093C56.6382 188.07 56.6164 188.049 56.5957 188.03C56.5756 188.01 56.5566 187.992 56.5404 187.977C56.5322 187.969 56.524 187.961 56.516 187.954C56.5078 187.946 56.4959 187.935 56.4792 187.919C56.4627 187.92 56.4506 187.916 56.4429 187.908C56.4344 187.901 56.4222 187.889 56.4055 187.874C56.3406 187.828 56.2757 187.778 56.2099 187.724C56.145 187.67 56.0792 187.612 56.014 187.55L55.5233 187.086L56.2805 180.122L52.446 184.173L51.9554 183.709C51.931 183.686 51.9063 183.663 51.882 183.639C51.8576 183.616 51.8366 183.589 51.8204 183.557C51.8122 183.549 51.8017 183.54 51.7898 183.528C51.7774 183.516 51.7711 183.503 51.7708 183.487C51.7547 183.471 51.7445 183.457 51.7399 183.446C51.736 183.433 51.7258 183.42 51.7096 183.404C51.7011 183.396 51.6929 183.389 51.6849 183.381C51.6767 183.373 51.6728 183.369 51.6728 183.369C51.656 183.37 51.6441 183.367 51.6362 183.359C51.628 183.351 51.6197 183.344 51.6112 183.336C51.5546 183.298 51.4996 183.257 51.4466 183.215C51.3935 183.173 51.3425 183.129 51.2935 183.082L50.8028 182.618ZM56.8658 179.504C56.8664 179.536 56.8769 179.566 56.8976 179.594C56.9177 179.621 56.9404 179.646 56.9648 179.669C57.2831 179.955 57.5892 180.189 57.8823 180.37C58.1754 180.552 58.451 180.669 58.7106 180.723C59.0023 180.792 59.269 180.825 59.5108 180.823C59.7529 180.821 59.9746 180.787 60.1761 180.722C60.321 180.684 60.4573 180.634 60.5857 180.572C60.7136 180.51 60.8227 180.441 60.91 180.364C61.0138 180.287 61.0997 180.217 61.1677 180.153C61.2354 180.09 61.289 180.037 61.329 179.995C61.3687 179.953 61.4086 179.903 61.4483 179.845C61.4877 179.786 61.5314 179.716 61.5787 179.633C61.634 179.558 61.6776 179.471 61.7085 179.373C61.7397 179.275 61.7706 179.169 61.8012 179.054C61.8474 178.891 61.8653 178.708 61.8545 178.507C61.8437 178.305 61.8089 178.096 61.7496 177.881C61.6983 177.657 61.5943 177.431 61.4375 177.203C61.2816 176.975 61.0724 176.738 60.8108 176.49L60.2583 175.919L56.8658 179.504ZM64.5415 182.597C64.9015 182.247 65.2737 181.99 65.6583 181.828C66.0427 181.665 66.4305 181.589 66.8214 181.601C67.2214 181.619 67.5952 181.68 67.9433 181.783C68.2911 181.886 68.6225 182.039 68.9366 182.24C68.963 182.261 68.9896 182.282 69.0163 182.303C69.0429 182.323 69.0695 182.344 69.0962 182.365C69.1135 182.379 69.1294 182.391 69.1424 182.401C69.156 182.412 69.1747 182.419 69.1999 182.424C69.2084 182.431 69.222 182.441 69.2396 182.455C69.2575 182.469 69.2705 182.48 69.2799 182.487L69.8224 182.889C70.0367 183.071 70.2315 183.26 70.4066 183.456C70.5827 183.652 70.7389 183.863 70.8772 184.089C71.0133 184.298 71.1105 184.503 71.1683 184.703C71.2264 184.902 71.2528 185.089 71.2466 185.26C71.151 185.273 71.0617 185.296 70.9798 185.327C70.8979 185.359 70.8151 185.401 70.7315 185.453C70.6479 185.505 70.5557 185.568 70.454 185.644C70.3525 185.719 70.2454 185.801 70.1334 185.889L70.0767 185.934L69.9996 186.006L69.4672 185.59L69.2657 185.409C69.2708 185.384 69.2796 185.35 69.2909 185.308C69.3028 185.266 69.3142 185.22 69.3249 185.169C69.3425 185.11 69.3567 185.051 69.3666 184.992C69.3768 184.934 69.3825 184.876 69.3842 184.819C69.3938 184.678 69.3839 184.531 69.3547 184.377C69.3261 184.221 69.2785 184.059 69.2116 183.889C69.1654 183.765 69.1081 183.646 69.0392 183.534C68.97 183.421 68.8816 183.315 68.7739 183.216C68.6083 183.116 68.4247 183.054 68.224 183.028C68.0216 183.003 67.8093 183.005 67.585 183.036C67.297 183.076 67.0402 183.162 66.8149 183.295C66.5901 183.427 66.3945 183.598 66.2306 183.808C66.2165 183.827 66.2 183.847 66.1827 183.87C66.1646 183.893 66.149 183.913 66.1346 183.932C66.1275 183.941 66.1204 183.95 66.113 183.959C66.1059 183.968 66.1034 183.981 66.1051 183.997C66.0983 184.006 66.0906 184.015 66.0835 184.024C66.0764 184.033 66.0694 184.043 66.062 184.051C65.9874 184.184 65.9302 184.335 65.8916 184.503C65.8525 184.671 65.8281 184.854 65.8171 185.051C65.821 185.246 65.8511 185.449 65.9069 185.662C65.9619 185.874 66.0518 186.102 66.1757 186.346L67.17 188.117C67.3359 188.452 67.4524 188.779 67.5187 189.096C67.585 189.412 67.5981 189.716 67.5558 190.007C67.523 190.305 67.4515 190.584 67.3415 190.843C67.2313 191.103 67.0904 191.342 66.9195 191.561C66.8979 191.588 66.8784 191.614 66.8605 191.636C66.8426 191.659 66.8268 191.68 66.8126 191.698C66.8049 191.707 66.7981 191.716 66.7913 191.725C66.784 191.734 66.7769 191.743 66.7698 191.753C66.7466 191.764 66.7312 191.774 66.7242 191.783C66.7168 191.793 66.71 191.801 66.7029 191.811C66.382 192.148 66.0115 192.417 65.59 192.617C65.1691 192.817 64.6948 192.954 64.1665 193.026C63.6384 193.098 63.1375 193.067 62.6644 192.932C62.191 192.798 61.7326 192.557 61.2899 192.21L60.7575 191.794L60.6912 191.742L60.6376 191.7C60.62 191.687 60.6025 191.673 60.5846 191.659C60.5667 191.645 60.5492 191.631 60.5313 191.617C60.5205 191.594 60.5069 191.575 60.4888 191.562C60.4715 191.548 60.4536 191.534 60.4355 191.52C60.4182 191.506 60.4003 191.492 60.3825 191.479C60.3649 191.465 60.3507 191.446 60.3403 191.423C60.3136 191.402 60.2929 191.383 60.279 191.365C60.2646 191.346 60.2487 191.33 60.2311 191.316C60.084 191.157 59.9479 190.988 59.8232 190.81C59.6985 190.631 59.5814 190.447 59.472 190.259C59.3688 190.061 59.288 189.877 59.2296 189.706C59.1707 189.534 59.1242 189.369 59.0913 189.211L59.0856 189.163L59.0939 189.125C59.1936 189.07 59.2892 189.013 59.3793 188.952C59.47 188.89 59.5451 188.831 59.6041 188.774C59.6418 188.745 59.675 188.716 59.7047 188.687C59.7334 188.659 59.7626 188.626 59.7912 188.59C59.8215 188.569 59.851 188.545 59.8808 188.516C59.9102 188.488 59.9391 188.455 59.9678 188.418C59.9822 188.4 59.9944 188.384 60.0049 188.371C60.0157 188.357 60.0327 188.345 60.0562 188.334C60.0704 188.315 60.0849 188.297 60.099 188.279C60.1135 188.26 60.1277 188.242 60.1418 188.224C60.1702 188.187 60.1988 188.151 60.2274 188.115C60.2563 188.078 60.2844 188.041 60.3128 188.005L60.5472 188.144L61.0792 188.56C61.0243 189.105 61.0146 189.561 61.0495 189.927C61.0852 190.293 61.1654 190.569 61.291 190.755C61.3865 190.889 61.4772 191.011 61.5617 191.121C61.647 191.232 61.727 191.331 61.8007 191.419C62.0529 191.572 62.301 191.67 62.5453 191.714C62.7897 191.758 63.0346 191.751 63.2801 191.693C63.5805 191.619 63.8507 191.507 64.0905 191.356C64.3297 191.205 64.5432 191.019 64.73 190.798C64.8731 190.615 64.986 190.42 65.0693 190.213C65.1523 190.006 65.2099 189.783 65.2408 189.542C65.2805 189.309 65.2737 189.075 65.2201 188.842C65.1665 188.609 65.0707 188.38 64.9327 188.154L64.0874 186.412C63.8331 185.934 63.6712 185.506 63.6024 185.128C63.5329 184.751 63.5488 184.424 63.6489 184.15C63.758 183.882 63.8844 183.621 64.0276 183.365C64.1707 183.109 64.3348 182.862 64.5199 182.625L64.5415 182.597ZM74.0296 186.131C74.0588 186.191 74.0903 186.241 74.1234 186.283C74.1572 186.325 74.1991 186.369 74.2501 186.415C74.2598 186.421 74.2663 186.425 74.2717 186.429C74.2765 186.431 74.2833 186.436 74.2927 186.442C74.3026 186.448 74.3094 186.452 74.3145 186.455C74.319 186.459 74.3264 186.463 74.3357 186.469C74.3987 186.495 74.461 186.518 74.5231 186.536C74.5849 186.554 74.6376 186.571 74.6816 186.585L75.2613 186.932L68.8303 197.093L68.26 196.732C68.2217 196.708 68.1786 196.677 68.129 196.639C68.0797 196.601 68.0343 196.562 67.9932 196.522C67.9833 196.516 67.9765 196.511 67.9714 196.509C67.9671 196.505 67.9598 196.501 67.9507 196.495C67.9411 196.489 67.9314 196.483 67.9218 196.477C67.9124 196.471 67.9028 196.465 67.8932 196.459C67.8302 196.433 67.7755 196.408 67.7296 196.386C67.6837 196.364 67.6369 196.338 67.5893 196.308L67.019 195.946L73.4593 185.77L74.0296 186.131ZM73.9346 200.109L79.0061 190.152C78.9902 190.157 78.978 190.157 78.9681 190.152C78.9576 190.147 78.9477 190.142 78.9378 190.137C78.9225 190.142 78.91 190.142 78.8995 190.137C78.8902 190.132 78.8794 190.127 78.8698 190.121C78.7141 190.055 78.5546 189.99 78.3913 189.926C78.228 189.862 78.0605 189.8 77.8898 189.739C77.8241 189.719 77.7626 189.697 77.7047 189.674C77.6472 189.651 77.5905 189.633 77.5349 189.617C77.4794 189.602 77.4232 189.583 77.3651 189.56C77.3073 189.537 77.2534 189.513 77.2033 189.487C77.0978 189.447 76.9935 189.409 76.89 189.377C76.7871 189.343 76.6848 189.314 76.5848 189.289C76.4887 189.253 76.4033 189.223 76.3279 189.197C76.2523 189.172 76.1822 189.149 76.1165 189.129L75.5226 188.807C75.5382 188.802 75.5544 188.787 75.5731 188.764C75.5912 188.741 75.6102 188.721 75.6306 188.706C75.6417 188.685 75.6547 188.666 75.6694 188.648C75.6853 188.63 75.7063 188.608 75.7321 188.582C75.7423 188.561 75.7525 188.541 75.7633 188.52C75.7735 188.499 75.7843 188.478 75.7947 188.458C75.8001 188.448 75.8052 188.438 75.8103 188.427C75.816 188.417 75.8288 188.404 75.8494 188.388C75.8548 188.378 75.8597 188.367 75.8653 188.357C75.8704 188.347 75.8755 188.337 75.8812 188.326C75.9073 188.275 75.9297 188.225 75.9481 188.175C75.9671 188.126 75.9818 188.078 75.9932 188.032C76.009 187.975 76.0263 187.923 76.045 187.874C76.0637 187.824 76.0737 187.774 76.0748 187.723L84.0189 191.73L84.6207 192.036C84.5898 192.072 84.5651 192.102 84.547 192.125C84.5286 192.148 84.509 192.168 84.4889 192.184C84.4685 192.199 84.4526 192.217 84.4421 192.238C84.4316 192.258 84.4211 192.279 84.4104 192.3C84.3851 192.326 84.3642 192.347 84.3489 192.366C84.333 192.384 84.3202 192.403 84.3097 192.423C84.2992 192.444 84.2871 192.467 84.274 192.493C84.2607 192.519 84.2494 192.542 84.2383 192.563C84.2173 192.604 84.1952 192.648 84.1717 192.695C84.1482 192.741 84.1277 192.793 84.1116 192.849C84.1005 192.896 84.0909 192.946 84.0821 193C84.0736 193.054 84.0611 193.11 84.0447 193.166L83.4511 192.844C83.1263 192.614 82.8105 192.392 82.5026 192.177C82.1957 191.962 81.8994 191.762 81.6143 191.578C81.4844 191.486 81.3606 191.406 81.2429 191.34C81.1253 191.273 81.0139 191.207 80.909 191.14L75.8458 201.082L75.2437 200.775C75.2236 200.765 75.2014 200.754 75.1759 200.741C75.151 200.728 75.1309 200.711 75.1161 200.691C75.0861 200.676 75.0597 200.659 75.037 200.641C75.0152 200.623 74.9937 200.609 74.9741 200.599C74.9741 200.599 74.971 200.598 74.9662 200.595C74.9614 200.593 74.9585 200.591 74.9585 200.591C74.9585 200.591 74.9563 200.59 74.9514 200.588C74.946 200.585 74.9435 200.584 74.9435 200.584C74.9435 200.584 74.9409 200.582 74.9364 200.58C74.9313 200.578 74.9237 200.573 74.9137 200.568C74.8485 200.548 74.7836 200.525 74.7213 200.5C74.6583 200.474 74.5974 200.446 74.5364 200.415L73.9346 200.109ZM79.8097 203.146L89.1499 193.688L89.7797 193.931L90.1423 194.07L90.6185 207.307L89.9881 207.064C89.9569 207.052 89.9226 207.039 89.8858 207.025C89.8495 207.011 89.8098 206.995 89.7678 206.979C89.7259 206.963 89.6865 206.948 89.6496 206.934C89.6128 206.919 89.5683 206.902 89.5158 206.882C89.4946 206.874 89.4711 206.865 89.4444 206.855C89.4183 206.845 89.3971 206.83 89.3801 206.811C89.3594 206.803 89.3356 206.794 89.3092 206.784C89.2831 206.774 89.2593 206.765 89.2383 206.757C89.2134 206.76 89.1876 206.756 89.1609 206.746C89.1349 206.735 89.1113 206.726 89.0901 206.718C89.0694 206.71 89.0478 206.702 89.0271 206.694C89.0062 206.686 88.9909 206.68 88.9801 206.676C88.9586 206.668 88.9407 206.661 88.9251 206.655C88.9092 206.649 88.8908 206.642 88.8695 206.633L88.2397 206.391L88.2295 201.248L85.0153 200.01L81.6849 203.868L81.0544 203.625C81.0337 203.617 81.0105 203.608 80.9838 203.598C80.9578 203.588 80.9337 203.579 80.913 203.57L80.8404 203.524C80.8257 203.53 80.8078 203.53 80.7868 203.522C80.7656 203.514 80.75 203.508 80.7392 203.504C80.7185 203.495 80.7001 203.489 80.6845 203.482C80.6686 203.476 80.6502 203.469 80.6295 203.461L79.9991 203.218C79.9673 203.206 79.9362 203.194 79.9044 203.182C79.8729 203.17 79.8415 203.158 79.8097 203.146ZM85.6868 199.393L88.2709 200.388L88.2026 196.712L85.6868 199.393Z" fill="#005D64"/>
<path d="M94.6217 198.579C94.8187 198.117 95.0636 197.737 95.3567 197.439C95.6484 197.141 95.9775 196.922 96.3432 196.783C96.7193 196.646 97.0876 196.558 97.4484 196.52C97.8095 196.481 98.1735 196.495 98.5409 196.56C98.5738 196.569 98.6058 196.578 98.6387 196.587C98.6713 196.596 98.7039 196.605 98.7359 196.614C98.758 196.62 98.777 196.625 98.7935 196.629C98.8099 196.634 98.83 196.633 98.8547 196.628C98.8655 196.631 98.8819 196.636 98.904 196.642C98.9255 196.648 98.942 196.652 98.9528 196.655L99.6084 196.818C99.876 196.904 100.129 197.004 100.366 197.117C100.604 197.231 100.829 197.365 101.043 197.52C101.249 197.661 101.418 197.813 101.548 197.975C101.679 198.137 101.774 198.299 101.834 198.46C101.751 198.509 101.678 198.564 101.614 198.624C101.551 198.685 101.491 198.755 101.433 198.836C101.376 198.916 101.315 199.01 101.25 199.119C101.185 199.227 101.118 199.344 101.049 199.469L101.013 199.531L100.97 199.627L100.319 199.448L100.063 199.359C100.058 199.333 100.053 199.299 100.048 199.256C100.042 199.212 100.035 199.165 100.026 199.114C100.019 199.053 100.009 198.993 99.9962 198.935C99.9826 198.877 99.9664 198.822 99.9455 198.768C99.9007 198.635 99.8352 198.503 99.749 198.371C99.6626 198.239 99.556 198.107 99.429 197.976C99.3388 197.879 99.2399 197.792 99.133 197.715C99.0259 197.637 98.9034 197.573 98.766 197.523C98.5749 197.495 98.3819 197.507 98.186 197.561C97.9901 197.616 97.7942 197.7 97.5989 197.814C97.3489 197.961 97.1448 198.14 96.9878 198.348C96.8316 198.558 96.7171 198.791 96.6462 199.048C96.6403 199.07 96.6335 199.095 96.6255 199.123C96.6179 199.151 96.6108 199.176 96.6045 199.198C96.6014 199.21 96.5983 199.221 96.5958 199.232C96.5924 199.243 96.5949 199.256 96.6026 199.27C96.5992 199.281 96.5963 199.292 96.5932 199.303C96.5904 199.314 96.587 199.326 96.5841 199.337C96.566 199.488 96.5711 199.649 96.6 199.819C96.6292 199.989 96.6765 200.167 96.7415 200.354C96.8205 200.532 96.9266 200.709 97.0595 200.883C97.1922 201.058 97.3622 201.234 97.5703 201.412L99.169 202.664C99.4517 202.91 99.6841 203.166 99.8675 203.433C100.051 203.7 100.179 203.976 100.252 204.261C100.337 204.548 100.377 204.833 100.375 205.115C100.374 205.397 100.336 205.672 100.262 205.94C100.253 205.973 100.244 206.004 100.237 206.032C100.229 206.06 100.222 206.085 100.216 206.107C100.213 206.118 100.21 206.13 100.206 206.141C100.203 206.152 100.2 206.163 100.197 206.174C100.18 206.194 100.17 206.209 100.167 206.22C100.164 206.231 100.161 206.242 100.158 206.254C99.9914 206.688 99.7524 207.079 99.4409 207.426C99.1288 207.772 98.7436 208.081 98.2838 208.351C97.8237 208.62 97.3495 208.784 96.8611 208.841C96.3721 208.899 95.8565 208.853 95.3139 208.703L94.6631 208.524L94.5817 208.501L94.5165 208.483C94.495 208.477 94.4732 208.471 94.4513 208.465C94.4298 208.459 94.4077 208.453 94.3864 208.447C94.3674 208.43 94.3476 208.418 94.3263 208.413C94.3039 208.406 94.2827 208.4 94.2609 208.395C94.239 208.388 94.2175 208.382 94.1957 208.377C94.1738 208.371 94.154 208.359 94.135 208.342C94.103 208.333 94.0763 208.323 94.0559 208.311C94.0361 208.299 94.0148 208.291 93.9935 208.285C93.7965 208.194 93.6061 208.091 93.4221 207.974C93.2387 207.857 93.0598 207.733 92.8861 207.601C92.7151 207.458 92.5694 207.318 92.4495 207.183C92.3293 207.048 92.223 206.913 92.132 206.78L92.1085 206.737L92.1011 206.699C92.1726 206.611 92.2383 206.52 92.2984 206.429C92.3585 206.338 92.405 206.254 92.4376 206.179C92.4606 206.137 92.4801 206.098 92.4966 206.06C92.5127 206.023 92.5272 205.982 92.5397 205.937C92.5592 205.906 92.5779 205.872 92.5935 205.834C92.6097 205.797 92.6241 205.756 92.6366 205.711C92.6428 205.689 92.6482 205.669 92.6528 205.653C92.657 205.636 92.6678 205.618 92.6854 205.599C92.691 205.576 92.6975 205.554 92.7035 205.531C92.71 205.509 92.7157 205.487 92.7222 205.464C92.7344 205.42 92.7469 205.375 92.7591 205.331C92.7718 205.286 92.784 205.241 92.7962 205.197L93.0658 205.235L93.7166 205.414C93.8759 205.939 94.042 206.363 94.2149 206.687C94.3884 207.012 94.5684 207.236 94.7566 207.359C94.8961 207.446 95.0262 207.524 95.147 207.594C95.268 207.663 95.38 207.724 95.4823 207.776C95.7731 207.82 96.0404 207.816 96.2825 207.763C96.5252 207.71 96.7485 207.609 96.9526 207.461C97.2021 207.277 97.4082 207.07 97.5714 206.838C97.7341 206.607 97.86 206.353 97.9473 206.077C98.0094 205.853 98.0383 205.63 98.036 205.407C98.0335 205.184 97.9998 204.955 97.936 204.721C97.8832 204.49 97.7872 204.278 97.648 204.083C97.5094 203.888 97.3325 203.714 97.1185 203.559L95.6685 202.275C95.2499 201.931 94.9355 201.598 94.7269 201.276C94.518 200.955 94.4071 200.647 94.3941 200.355C94.3918 200.066 94.4083 199.776 94.4417 199.485C94.4754 199.194 94.5321 198.903 94.6118 198.613L94.6217 198.579ZM108.059 210.755L108.791 198.734L109.465 198.776L110.274 198.825L117.177 207.671L117.689 199.276L118.363 199.317C118.383 199.353 118.41 199.378 118.443 199.391C118.475 199.405 118.509 199.418 118.542 199.432C118.587 199.423 118.627 199.414 118.662 199.405C118.696 199.395 118.725 199.385 118.748 199.375L119.423 199.398L118.693 211.402L118.019 211.361L117.362 211.321L110.322 202.205L109.795 210.861L109.121 210.82C109.11 210.819 109.098 210.818 109.087 210.818C109.076 210.817 109.065 210.816 109.054 210.815C109.031 210.814 109.015 210.81 109.004 210.804C108.992 210.797 108.982 210.794 108.97 210.793C108.948 210.791 108.928 210.79 108.912 210.789C108.895 210.788 108.875 210.793 108.851 210.804C108.829 210.802 108.809 210.801 108.792 210.8C108.776 210.799 108.756 210.798 108.733 210.796L108.059 210.755ZM122.121 211.188L120.983 199.339L121.655 199.274L127.739 198.69C127.733 198.749 127.727 198.799 127.719 198.84C127.712 198.882 127.705 198.92 127.697 198.956C127.698 198.967 127.696 198.982 127.693 199C127.689 199.018 127.687 199.032 127.688 199.044C127.679 199.068 127.675 199.086 127.677 199.097C127.678 199.109 127.68 199.126 127.682 199.149L127.685 199.184L127.691 199.253C127.697 199.311 127.701 199.36 127.706 199.4C127.709 199.44 127.719 199.483 127.735 199.528C127.737 199.551 127.742 199.574 127.75 199.597C127.758 199.619 127.768 199.641 127.782 199.663C127.796 199.697 127.808 199.725 127.815 199.748C127.823 199.77 127.833 199.792 127.847 199.814L127.173 199.862C127.003 199.854 126.833 199.848 126.662 199.841C126.492 199.834 126.311 199.833 126.12 199.841C125.939 199.846 125.756 199.855 125.571 199.867C125.385 199.879 125.198 199.894 125.007 199.912C124.996 199.913 124.99 199.914 124.99 199.914C124.946 199.93 124.905 199.939 124.866 199.943C124.827 199.947 124.785 199.951 124.74 199.955C124.695 199.96 124.65 199.964 124.605 199.968C124.561 199.973 124.521 199.976 124.488 199.98C124.443 199.984 124.395 199.989 124.345 199.993C124.294 199.998 124.241 200.003 124.185 200.009C124.141 200.025 124.095 200.035 124.044 200.04C123.994 200.045 123.946 200.049 123.901 200.053C123.8 200.063 123.702 200.072 123.607 200.082C123.512 200.091 123.419 200.1 123.33 200.108L123.731 204.294L125.58 204.117L127.146 203.827L127.819 203.762C127.813 203.821 127.804 203.872 127.791 203.913C127.778 203.956 127.768 203.994 127.76 204.03C127.753 204.077 127.752 204.121 127.756 204.162C127.76 204.202 127.763 204.245 127.768 204.291C127.77 204.314 127.773 204.337 127.775 204.36C127.777 204.384 127.779 204.407 127.781 204.429C127.785 204.464 127.79 204.493 127.797 204.515C127.805 204.538 127.811 204.561 127.813 204.584C127.829 204.629 127.847 204.676 127.869 204.727C127.891 204.777 127.91 204.83 127.927 204.887L127.253 204.934L125.255 204.969L123.81 205.108L124.281 210.02C124.362 210.036 124.448 210.045 124.538 210.048C124.629 210.051 124.725 210.048 124.825 210.038C124.916 210.041 125.007 210.038 125.096 210.029C125.185 210.021 125.281 210.012 125.382 210.002C125.438 209.997 125.488 209.991 125.533 209.987C125.578 209.983 125.622 209.973 125.666 209.957C125.711 209.953 125.758 209.948 125.808 209.943C125.859 209.939 125.907 209.934 125.951 209.93C126.174 209.896 126.392 209.864 126.604 209.833C126.816 209.8 127.027 209.768 127.239 209.736C127.438 209.694 127.621 209.656 127.788 209.623C127.954 209.589 128.104 209.56 128.237 209.536L128.908 209.454C128.902 209.513 128.894 209.569 128.881 209.622C128.87 209.676 128.861 209.732 128.856 209.791C128.848 209.838 128.847 209.885 128.852 209.931C128.857 209.977 128.861 210.023 128.865 210.069C128.87 210.115 128.874 210.161 128.878 210.207C128.883 210.254 128.893 210.299 128.908 210.344C128.924 210.389 128.942 210.428 128.962 210.461C128.983 210.495 128.999 210.516 129.011 210.527L128.339 210.591L122.121 211.188ZM129.923 204.567C129.788 203.661 129.762 202.851 129.844 202.138C129.926 201.425 130.117 200.814 130.417 200.305C130.718 199.797 131.051 199.352 131.417 198.972C131.783 198.592 132.182 198.276 132.614 198.025C132.839 197.886 133.065 197.764 133.29 197.66C133.517 197.556 133.742 197.464 133.967 197.383C134.192 197.304 134.41 197.231 134.62 197.165C134.832 197.099 135.024 197.043 135.198 196.997L135.858 196.848C136.213 196.789 136.574 196.743 136.941 196.712C137.307 196.68 137.681 196.668 138.061 196.675C138.43 196.684 138.808 196.724 139.195 196.795C139.582 196.866 139.977 196.961 140.38 197.082L140.138 198.636L139.476 198.768C139.416 198.756 139.348 198.731 139.272 198.693C139.195 198.655 139.117 198.609 139.037 198.554C138.957 198.499 138.875 198.444 138.789 198.391C138.705 198.336 138.611 198.285 138.509 198.234C138.33 198.14 138.129 198.055 137.908 197.981C137.686 197.907 137.45 197.842 137.198 197.786C136.992 197.733 136.765 197.704 136.518 197.7C136.27 197.696 136.007 197.716 135.729 197.76C135.674 197.77 135.616 197.785 135.557 197.803C135.497 197.821 135.435 197.842 135.371 197.866C135.263 197.899 135.154 197.939 135.042 197.984C134.931 198.031 134.817 198.082 134.703 198.141C134.317 198.335 133.958 198.593 133.626 198.913C133.294 199.234 132.989 199.616 132.71 200.061C132.442 200.504 132.263 201.019 132.173 201.603C132.083 202.188 132.084 202.856 132.176 203.605L132.186 203.657L132.199 203.724L132.213 203.793L132.227 203.861C132.383 204.704 132.64 205.444 132.996 206.082C133.353 206.72 133.803 207.256 134.349 207.691C134.866 208.096 135.417 208.373 136.004 208.522C136.59 208.671 137.218 208.697 137.886 208.599C138.105 208.544 138.313 208.482 138.512 208.412C138.711 208.343 138.905 208.267 139.095 208.181C139.337 208.074 139.541 207.96 139.706 207.838C139.871 207.717 140.01 207.592 140.122 207.463L139.233 202.997L139.896 202.866C139.923 202.884 139.947 202.894 139.97 202.895C139.994 202.896 140.023 202.899 140.058 202.905C140.083 202.911 140.106 202.916 140.13 202.917C140.153 202.918 140.176 202.916 140.197 202.912C140.209 202.91 140.217 202.908 140.222 202.907C140.228 202.906 140.236 202.905 140.247 202.902C140.261 202.911 140.27 202.915 140.276 202.914C140.281 202.913 140.289 202.912 140.3 202.91C140.3 202.91 140.306 202.908 140.317 202.906C140.37 202.884 140.428 202.857 140.491 202.827C140.553 202.797 140.617 202.77 140.68 202.745L141.34 202.596L142.327 207.556L142.287 207.617L142.241 207.644C142.193 207.689 142.135 207.73 142.067 207.767C142.001 207.804 141.93 207.841 141.858 207.88C141.787 207.929 141.71 207.974 141.626 208.014C141.542 208.055 141.453 208.096 141.358 208.138C141.169 208.223 140.978 208.303 140.786 208.377C140.595 208.45 140.39 208.52 140.174 208.587C139.982 208.661 139.798 208.73 139.621 208.794C139.445 208.859 139.264 208.916 139.079 208.965C138.906 209.022 138.744 209.072 138.592 209.114C138.439 209.157 138.303 209.189 138.181 209.214L137.519 209.346C137.497 209.35 137.472 209.355 137.444 209.36C137.417 209.366 137.392 209.371 137.37 209.375C137.348 209.379 137.323 209.385 137.295 209.39C137.267 209.396 137.243 209.4 137.221 209.405C136.283 209.592 135.418 209.628 134.626 209.514C133.834 209.4 133.107 209.119 132.444 208.672C131.795 208.235 131.259 207.677 130.837 206.999C130.416 206.321 130.113 205.522 129.93 204.602L129.923 204.567ZM145.42 207.04L141.349 195.854L141.983 195.623L147.726 193.533C147.736 193.591 147.742 193.641 147.745 193.683C147.749 193.725 147.751 193.765 147.752 193.801C147.756 193.812 147.759 193.827 147.759 193.845C147.76 193.863 147.762 193.878 147.766 193.888C147.763 193.914 147.764 193.933 147.768 193.943C147.772 193.954 147.778 193.97 147.786 193.992L147.798 194.025L147.821 194.09C147.841 194.145 147.858 194.191 147.872 194.229C147.886 194.267 147.906 194.306 147.932 194.346C147.94 194.367 147.951 194.388 147.964 194.408C147.977 194.428 147.993 194.447 148.012 194.465C148.034 194.494 148.052 194.518 148.065 194.538C148.078 194.558 148.094 194.577 148.113 194.594L147.472 194.809C147.306 194.845 147.139 194.881 146.972 194.917C146.806 194.953 146.63 194.998 146.447 195.053C146.273 195.104 146.099 195.158 145.922 195.216C145.746 195.274 145.568 195.336 145.388 195.401C145.377 195.405 145.372 195.407 145.372 195.407C145.334 195.434 145.296 195.453 145.259 195.466C145.222 195.48 145.182 195.494 145.14 195.51C145.098 195.525 145.055 195.541 145.013 195.556C144.971 195.572 144.934 195.585 144.902 195.596C144.86 195.612 144.815 195.628 144.767 195.646C144.72 195.663 144.669 195.681 144.617 195.7C144.578 195.727 144.535 195.749 144.488 195.766C144.44 195.783 144.395 195.799 144.353 195.815C144.257 195.849 144.165 195.883 144.075 195.916C143.985 195.949 143.898 195.98 143.813 196.011L145.252 199.963L146.997 199.328L148.44 198.655L149.075 198.424C149.084 198.482 149.088 198.533 149.086 198.577C149.084 198.621 149.084 198.661 149.085 198.698C149.091 198.745 149.1 198.788 149.114 198.825C149.128 198.864 149.142 198.905 149.159 198.948C149.166 198.97 149.174 198.992 149.182 199.014C149.19 199.035 149.198 199.057 149.206 199.079C149.218 199.112 149.23 199.138 149.243 199.158C149.257 199.177 149.267 199.198 149.275 199.22C149.301 199.26 149.332 199.301 149.365 199.344C149.399 199.388 149.431 199.434 149.461 199.485L148.821 199.7L146.896 200.234L145.531 200.731L147.219 205.369C147.301 205.363 147.386 205.351 147.474 205.331C147.563 205.311 147.655 205.284 147.75 205.249C147.839 205.229 147.925 205.203 148.01 205.173C148.095 205.142 148.184 205.109 148.28 205.075C148.333 205.055 148.38 205.038 148.422 205.023C148.465 205.008 148.505 204.987 148.543 204.96C148.586 204.945 148.631 204.929 148.678 204.911C148.726 204.894 148.771 204.877 148.813 204.862C149.02 204.774 149.223 204.688 149.42 204.604C149.617 204.52 149.814 204.436 150.011 204.352C150.193 204.261 150.361 204.179 150.514 204.105C150.667 204.03 150.804 203.965 150.927 203.908L151.556 203.661C151.565 203.719 151.571 203.775 151.573 203.83C151.575 203.885 151.58 203.941 151.59 204C151.595 204.047 151.606 204.093 151.622 204.136C151.637 204.18 151.653 204.223 151.669 204.267C151.685 204.31 151.7 204.354 151.717 204.397C151.732 204.441 151.753 204.482 151.779 204.522C151.806 204.562 151.833 204.595 151.861 204.622C151.889 204.649 151.91 204.666 151.925 204.673L151.29 204.904L145.42 207.04ZM154.362 203.744L149.064 192.929L149.67 192.632L153.37 190.82C153.886 190.593 154.364 190.449 154.804 190.389C155.244 190.328 155.644 190.358 156.004 190.478C156.369 190.609 156.687 190.798 156.958 191.045C157.23 191.293 157.455 191.599 157.634 191.963C157.807 192.317 157.916 192.66 157.96 192.993C158.004 193.327 157.976 193.647 157.876 193.954C157.785 194.256 157.67 194.539 157.529 194.801C157.388 195.063 157.225 195.298 157.038 195.506C156.947 195.602 156.859 195.697 156.773 195.791C156.687 195.884 156.594 195.968 156.493 196.044C156.407 196.125 156.318 196.197 156.224 196.263C156.13 196.328 156.046 196.385 155.97 196.435L162.609 199.704L162.003 200.001C161.963 200.021 161.925 200.04 161.889 200.057C161.854 200.074 161.814 200.088 161.768 200.097C161.728 200.117 161.689 200.133 161.651 200.145C161.612 200.157 161.576 200.165 161.541 200.17C161.51 200.185 161.483 200.198 161.457 200.21C161.432 200.223 161.409 200.234 161.389 200.244C161.379 200.249 161.368 200.254 161.359 200.259C161.349 200.264 161.333 200.271 161.313 200.281C161.308 200.297 161.301 200.307 161.291 200.312C161.28 200.317 161.265 200.324 161.245 200.334C161.179 200.379 161.11 200.423 161.037 200.465C160.963 200.507 160.886 200.549 160.805 200.588L160.199 200.885L153.939 197.739L156.393 202.749L155.787 203.046C155.756 203.061 155.726 203.076 155.696 203.091C155.665 203.105 155.633 203.115 155.597 203.119C155.587 203.124 155.574 203.131 155.559 203.138C155.544 203.145 155.529 203.146 155.514 203.141C155.494 203.151 155.477 203.156 155.465 203.156C155.452 203.156 155.436 203.16 155.415 203.17C155.405 203.175 155.395 203.18 155.385 203.185C155.374 203.19 155.37 203.192 155.37 203.192C155.364 203.208 155.357 203.218 155.347 203.223C155.337 203.228 155.327 203.233 155.317 203.238C155.261 203.278 155.204 203.316 155.146 203.35C155.088 203.385 155.029 203.418 154.968 203.447L154.362 203.744ZM153.564 196.975C153.595 196.986 153.627 196.986 153.66 196.977C153.693 196.967 153.724 196.955 153.754 196.94C154.133 196.741 154.46 196.537 154.732 196.326C155.004 196.114 155.211 195.898 155.353 195.674C155.519 195.424 155.643 195.186 155.726 194.958C155.809 194.731 155.855 194.512 155.864 194.301C155.879 194.151 155.879 194.006 155.866 193.864C155.854 193.722 155.827 193.596 155.786 193.488C155.75 193.363 155.714 193.258 155.678 193.172C155.643 193.086 155.612 193.018 155.586 192.966C155.561 192.914 155.528 192.859 155.487 192.801C155.447 192.744 155.396 192.679 155.335 192.605C155.284 192.527 155.218 192.456 155.137 192.393C155.055 192.329 154.966 192.263 154.871 192.194C154.733 192.094 154.569 192.013 154.376 191.953C154.184 191.892 153.975 191.852 153.753 191.832C153.525 191.802 153.278 191.82 153.009 191.887C152.741 191.954 152.445 192.066 152.122 192.225L151.393 192.542L153.564 196.975ZM158.858 187.843C158.923 187.843 158.982 187.837 159.035 187.825C159.087 187.814 159.146 187.795 159.208 187.77C159.218 187.764 159.225 187.76 159.23 187.756C159.235 187.754 159.243 187.749 159.252 187.744C159.261 187.738 159.269 187.733 159.274 187.73C159.278 187.727 159.286 187.723 159.295 187.717C159.347 187.672 159.394 187.626 159.438 187.578C159.481 187.531 159.519 187.491 159.552 187.458L160.118 187.09L166.403 197.343L165.827 197.696C165.789 197.719 165.742 197.745 165.686 197.772C165.63 197.8 165.575 197.823 165.522 197.842C165.511 197.849 165.504 197.853 165.499 197.856C165.495 197.859 165.487 197.863 165.478 197.869C165.468 197.875 165.459 197.881 165.449 197.887C165.439 197.893 165.43 197.899 165.42 197.904C165.369 197.95 165.323 197.988 165.283 198.019C165.242 198.051 165.199 198.081 165.151 198.11L164.574 198.463L158.282 188.196L158.858 187.843ZM167.767 181.704C167.833 181.697 167.892 181.686 167.942 181.669C167.993 181.652 168.049 181.628 168.11 181.597C168.119 181.59 168.125 181.585 168.13 181.581C168.135 181.578 168.141 181.573 168.15 181.566C168.159 181.559 168.166 181.554 168.171 181.551C168.175 181.547 168.182 181.542 168.191 181.536C168.238 181.485 168.28 181.435 168.319 181.384C168.358 181.333 168.392 181.289 168.421 181.252L168.949 180.831L175.713 189.769C175.978 190.12 176.156 190.487 176.248 190.868C176.339 191.25 176.348 191.663 176.276 192.11C176.214 192.55 176.08 192.946 175.873 193.298C175.667 193.65 175.392 193.963 175.049 194.237L174.511 194.644L174.457 194.685L174.43 194.706L174.379 194.723L174.325 194.763L173.976 194.33C174.323 194.024 174.553 193.712 174.666 193.394C174.778 193.077 174.773 192.753 174.651 192.425C174.537 192.105 174.379 191.77 174.178 191.421C173.977 191.072 173.733 190.707 173.447 190.329L167.229 182.111L167.767 181.704ZM177.629 189.297L173.316 176.724L173.813 176.268L174.099 176.005L186.165 181.469L185.668 181.926C185.642 181.949 185.615 181.973 185.587 182C185.558 182.026 185.526 182.055 185.493 182.085C185.46 182.116 185.429 182.144 185.4 182.171C185.371 182.198 185.335 182.23 185.294 182.268C185.278 182.283 185.259 182.301 185.238 182.32C185.217 182.339 185.195 182.351 185.17 182.358C185.153 182.373 185.135 182.39 185.114 182.409C185.094 182.428 185.075 182.445 185.058 182.46C185.05 182.484 185.035 182.506 185.014 182.525C184.994 182.544 184.975 182.561 184.958 182.576C184.942 182.591 184.925 182.606 184.908 182.622C184.892 182.637 184.88 182.648 184.871 182.656C184.854 182.671 184.84 182.684 184.828 182.696C184.815 182.707 184.801 182.721 184.784 182.736L184.286 183.192L179.676 180.912L177.137 183.24L179.11 187.939L178.612 188.395C178.595 188.411 178.577 188.428 178.556 188.447C178.536 188.466 178.516 188.483 178.5 188.498L178.426 188.542C178.426 188.559 178.417 188.575 178.4 188.59C178.384 188.605 178.372 188.616 178.363 188.624C178.347 188.639 178.332 188.652 178.32 188.664C178.307 188.675 178.293 188.688 178.276 188.704L177.779 189.16C177.754 189.183 177.729 189.206 177.704 189.228C177.679 189.251 177.654 189.274 177.629 189.297ZM176.884 182.364L178.925 180.493L175.602 178.919L176.884 182.364ZM187.412 179.787L178.08 172.175L178.507 171.652C178.546 171.64 178.588 171.621 178.634 171.592C178.68 171.564 178.721 171.535 178.759 171.508C178.766 171.499 178.773 171.491 178.78 171.482C178.787 171.473 178.794 171.465 178.801 171.456C178.81 171.463 178.818 171.462 178.825 171.454C178.832 171.445 178.839 171.436 178.847 171.427C178.847 171.427 178.848 171.425 178.852 171.421C178.856 171.417 178.857 171.415 178.857 171.415C178.857 171.415 178.859 171.412 178.863 171.408C178.866 171.403 178.868 171.401 178.868 171.401C178.902 171.342 178.931 171.283 178.957 171.223C178.983 171.164 179.005 171.114 179.025 171.072L179.438 170.538L183.33 173.712C183.335 173.688 183.338 173.665 183.34 173.644C183.342 173.624 183.337 173.602 183.327 173.579C183.332 173.554 183.333 173.529 183.33 173.505C183.328 173.481 183.325 173.461 183.323 173.445C183.32 173.413 183.316 173.381 183.312 173.349C183.308 173.317 183.308 173.28 183.312 173.239C183.308 173.208 183.304 173.171 183.299 173.131C183.294 173.091 183.289 173.047 183.284 172.999C183.276 172.935 183.269 172.871 183.261 172.807C183.254 172.742 183.246 172.678 183.239 172.614C183.232 172.55 183.224 172.486 183.217 172.422C183.209 172.357 183.202 172.293 183.194 172.229L182.531 166.72L182.957 166.196C183.02 166.175 183.07 166.15 183.107 166.122C183.145 166.095 183.182 166.067 183.219 166.04C183.219 166.04 183.221 166.038 183.225 166.033C183.228 166.029 183.23 166.027 183.23 166.027C183.23 166.027 183.232 166.024 183.236 166.02C183.239 166.016 183.241 166.014 183.241 166.014C183.253 165.98 183.266 165.946 183.278 165.913C183.29 165.88 183.302 165.846 183.315 165.812L183.728 165.278L184.573 172.656L193.002 172.495L193.217 172.67L192.791 173.194C192.769 173.22 192.748 173.246 192.726 173.272C192.705 173.298 192.68 173.321 192.649 173.34C192.621 173.375 192.594 173.403 192.568 173.426C192.542 173.448 192.518 173.473 192.497 173.499C192.49 173.507 192.483 173.516 192.476 173.525C192.469 173.534 192.457 173.539 192.441 173.54C192.433 173.549 192.427 173.558 192.419 173.566C192.412 173.575 192.405 173.583 192.398 173.592C192.391 173.601 192.384 173.61 192.377 173.619C192.369 173.627 192.363 173.636 192.355 173.644C192.357 173.661 192.355 173.673 192.347 173.682C192.341 173.691 192.333 173.699 192.326 173.708C192.285 173.777 192.241 173.845 192.192 173.914C192.142 173.983 192.09 174.053 192.033 174.123L191.606 174.646L185.169 174.537C185.145 174.547 185.119 174.557 185.087 174.568C185.056 174.579 185.019 174.582 184.978 174.578C184.946 174.581 184.912 174.581 184.875 174.58C184.839 174.58 184.8 174.577 184.758 174.573C184.726 174.575 184.696 174.576 184.667 174.574C184.639 174.573 184.608 174.573 184.576 174.576C184.553 174.586 184.527 174.591 184.498 174.589C184.47 174.588 184.439 174.588 184.407 174.591L188.756 178.139L188.33 178.662C188.301 178.697 188.269 178.732 188.232 178.768C188.196 178.804 188.155 178.839 188.111 178.875C188.111 178.875 188.109 178.878 188.105 178.882C188.102 178.887 188.1 178.889 188.1 178.889C188.1 178.889 188.098 178.891 188.095 178.895C188.091 178.9 188.09 178.902 188.09 178.902C188.09 178.902 188.088 178.904 188.084 178.908C188.081 178.913 188.075 178.919 188.068 178.928C188.034 178.987 187.998 179.046 187.96 179.101C187.922 179.157 187.881 179.211 187.839 179.264L187.412 179.787ZM193.712 171.954L186.439 160.829L186.809 160.264L187.022 159.939L200.061 162.267L199.691 162.832C199.672 162.861 199.652 162.891 199.631 162.924C199.609 162.957 199.586 162.992 199.561 163.03C199.536 163.068 199.513 163.103 199.492 163.136C199.47 163.169 199.444 163.209 199.413 163.256C199.401 163.275 199.387 163.296 199.371 163.32C199.356 163.343 199.337 163.361 199.315 163.373C199.303 163.392 199.289 163.413 199.274 163.437C199.258 163.46 199.244 163.482 199.232 163.5C199.229 163.526 199.22 163.55 199.205 163.574C199.189 163.597 199.176 163.618 199.163 163.637C199.151 163.656 199.138 163.675 199.126 163.693C199.113 163.712 199.105 163.726 199.098 163.736C199.086 163.755 199.075 163.771 199.066 163.785C199.057 163.799 199.046 163.816 199.034 163.835L198.664 164.4L193.634 163.324L191.746 166.205L194.814 170.274L194.444 170.839C194.431 170.857 194.417 170.879 194.402 170.902C194.387 170.926 194.373 170.947 194.36 170.966L194.299 171.027C194.303 171.043 194.299 171.06 194.286 171.079C194.274 171.098 194.265 171.112 194.259 171.121C194.246 171.14 194.236 171.156 194.226 171.17C194.217 171.185 194.206 171.201 194.194 171.22L193.824 171.785C193.805 171.814 193.787 171.842 193.768 171.87C193.749 171.898 193.731 171.926 193.712 171.954ZM191.285 165.418L192.802 163.102L189.195 162.393L191.285 165.418Z" fill="#005D64"/>
<path d="M200.926 160.37L190.041 155.218L190.33 154.607L192.093 150.884C192.354 150.385 192.639 149.975 192.945 149.653C193.251 149.331 193.582 149.105 193.939 148.975C194.305 148.849 194.672 148.798 195.039 148.823C195.406 148.847 195.772 148.946 196.139 149.119C196.495 149.288 196.794 149.489 197.036 149.722C197.278 149.955 197.456 150.222 197.569 150.525C197.687 150.817 197.773 151.11 197.827 151.403C197.88 151.696 197.898 151.982 197.882 152.261C197.871 152.392 197.861 152.521 197.852 152.648C197.843 152.775 197.823 152.899 197.791 153.021C197.774 153.138 197.75 153.25 197.717 153.36C197.685 153.469 197.654 153.566 197.626 153.653L204.856 152.069L204.567 152.679C204.547 152.72 204.529 152.758 204.513 152.794C204.496 152.829 204.472 152.865 204.442 152.901C204.423 152.941 204.403 152.978 204.381 153.011C204.358 153.045 204.335 153.074 204.31 153.1C204.295 153.13 204.282 153.158 204.27 153.183C204.258 153.209 204.247 153.232 204.238 153.252C204.233 153.262 204.228 153.273 204.223 153.283C204.218 153.293 204.211 153.308 204.202 153.328C204.208 153.344 204.208 153.356 204.203 153.367C204.198 153.377 204.191 153.392 204.181 153.412C204.158 153.489 204.131 153.566 204.1 153.645C204.069 153.723 204.034 153.804 203.996 153.885L203.707 154.495L196.852 155.939L201.894 158.326L201.605 158.936C201.59 158.966 201.576 158.997 201.562 159.027C201.547 159.058 201.527 159.086 201.502 159.112C201.498 159.122 201.491 159.135 201.485 159.15C201.477 159.165 201.466 159.175 201.45 159.18C201.441 159.201 201.431 159.215 201.421 159.222C201.411 159.23 201.401 159.244 201.392 159.264C201.387 159.275 201.382 159.285 201.377 159.295C201.373 159.305 201.37 159.31 201.37 159.31C201.376 159.326 201.376 159.338 201.372 159.348C201.366 159.358 201.362 159.368 201.357 159.379C201.338 159.445 201.317 159.51 201.294 159.573C201.27 159.637 201.244 159.699 201.215 159.76L200.926 160.37ZM196.082 155.575C196.113 155.564 196.138 155.545 196.158 155.517C196.177 155.488 196.194 155.459 196.209 155.429C196.381 155.037 196.509 154.674 196.59 154.339C196.672 154.004 196.698 153.706 196.669 153.443C196.643 153.144 196.592 152.88 196.515 152.65C196.438 152.421 196.337 152.221 196.213 152.049C196.131 151.924 196.041 151.81 195.942 151.707C195.844 151.604 195.744 151.522 195.644 151.463C195.539 151.388 195.446 151.329 195.364 151.284C195.283 151.239 195.215 151.204 195.163 151.18C195.111 151.154 195.051 151.132 194.983 151.113C194.916 151.093 194.835 151.074 194.742 151.054C194.653 151.025 194.558 151.011 194.454 151.012C194.352 151.013 194.24 151.017 194.122 151.023C193.952 151.03 193.774 151.069 193.586 151.142C193.397 151.215 193.209 151.313 193.023 151.436C192.826 151.555 192.643 151.724 192.476 151.943C192.308 152.163 192.147 152.435 191.992 152.76L191.622 153.463L196.082 155.575ZM206.431 147.619L195.915 143.84C195.922 143.855 195.924 143.868 195.92 143.878C195.917 143.889 195.912 143.899 195.908 143.91C195.915 143.924 195.918 143.937 195.914 143.947C195.91 143.958 195.906 143.969 195.902 143.979C195.856 144.142 195.811 144.308 195.769 144.479C195.726 144.648 195.685 144.822 195.646 145C195.635 145.067 195.621 145.131 195.605 145.191C195.59 145.251 195.578 145.31 195.57 145.367C195.562 145.424 195.55 145.482 195.534 145.542C195.519 145.603 195.501 145.659 195.483 145.712C195.455 145.822 195.432 145.93 195.412 146.037C195.392 146.143 195.376 146.248 195.363 146.351C195.34 146.45 195.321 146.539 195.305 146.617C195.29 146.695 195.275 146.768 195.264 146.836L195.019 147.465C195.012 147.451 194.995 147.436 194.97 147.42C194.945 147.406 194.923 147.389 194.905 147.37C194.884 147.363 194.862 147.352 194.843 147.339C194.823 147.326 194.798 147.308 194.769 147.286C194.748 147.278 194.726 147.27 194.704 147.262C194.682 147.255 194.66 147.247 194.638 147.239C194.628 147.235 194.617 147.231 194.606 147.227C194.595 147.223 194.58 147.212 194.562 147.193C194.552 147.19 194.541 147.186 194.53 147.182C194.519 147.178 194.508 147.174 194.497 147.17C194.443 147.151 194.39 147.135 194.339 147.122C194.288 147.11 194.239 147.101 194.191 147.096C194.133 147.087 194.078 147.077 194.027 147.064C193.977 147.052 193.926 147.048 193.874 147.054L196.85 138.669L197.079 138.033C197.118 138.06 197.151 138.08 197.176 138.095C197.201 138.111 197.223 138.127 197.241 138.146C197.259 138.164 197.279 138.177 197.3 138.185C197.323 138.193 197.345 138.201 197.367 138.209C197.395 138.23 197.42 138.248 197.44 138.262C197.459 138.275 197.48 138.285 197.502 138.293C197.524 138.301 197.549 138.31 197.575 138.319C197.603 138.329 197.627 138.338 197.649 138.346C197.693 138.362 197.739 138.378 197.788 138.396C197.837 138.414 197.891 138.427 197.949 138.436C197.997 138.441 198.048 138.444 198.103 138.446C198.157 138.448 198.214 138.454 198.272 138.462L198.028 139.092C197.84 139.443 197.659 139.785 197.484 140.116C197.31 140.449 197.149 140.767 197.001 141.073C196.927 141.214 196.864 141.346 196.812 141.472C196.761 141.597 196.709 141.716 196.657 141.828L207.156 145.601L206.927 146.237C206.92 146.258 206.912 146.281 206.902 146.308C206.892 146.335 206.879 146.356 206.859 146.374C206.848 146.405 206.835 146.434 206.82 146.458C206.805 146.482 206.794 146.506 206.786 146.527C206.786 146.527 206.786 146.529 206.783 146.535C206.782 146.54 206.781 146.543 206.781 146.543C206.781 146.543 206.78 146.545 206.778 146.551C206.776 146.556 206.775 146.558 206.775 146.558C206.775 146.558 206.774 146.561 206.772 146.567C206.77 146.571 206.768 146.58 206.764 146.59C206.752 146.658 206.737 146.724 206.719 146.789C206.702 146.855 206.682 146.92 206.659 146.983L206.431 147.619ZM208.732 141.401L197.871 133.738L198.007 133.077L198.085 132.697L211.065 130.056L210.929 130.718C210.922 130.751 210.914 130.786 210.907 130.825C210.899 130.864 210.89 130.905 210.881 130.949C210.872 130.993 210.863 131.034 210.855 131.073C210.848 131.112 210.838 131.159 210.827 131.214C210.822 131.236 210.817 131.261 210.812 131.288C210.806 131.316 210.795 131.339 210.779 131.359C210.774 131.381 210.769 131.406 210.764 131.434C210.758 131.461 210.753 131.486 210.748 131.508C210.755 131.532 210.756 131.558 210.75 131.586C210.744 131.613 210.74 131.638 210.735 131.66C210.73 131.682 210.726 131.704 210.721 131.726C210.717 131.748 210.713 131.765 210.711 131.776C210.706 131.798 210.703 131.817 210.699 131.834C210.696 131.85 210.692 131.87 210.687 131.892L210.551 132.553L205.48 133.407L204.786 136.781L209.137 139.433L209.001 140.094C208.996 140.116 208.992 140.141 208.985 140.169C208.98 140.196 208.975 140.221 208.97 140.243L208.936 140.322C208.945 140.335 208.948 140.353 208.943 140.376C208.938 140.398 208.935 140.414 208.933 140.425C208.928 140.447 208.924 140.467 208.921 140.483C208.918 140.5 208.913 140.519 208.909 140.541L208.773 141.202C208.766 141.236 208.76 141.269 208.753 141.302C208.746 141.334 208.739 141.368 208.732 141.401ZM204.067 136.219L204.625 133.507L201.01 134.177L204.067 136.219Z" fill="#005D64"/>
<path fill-rule="evenodd" clip-rule="evenodd" d="M118.292 70.581C120.311 66.5751 124.222 64.6019 123.177 57.8875C125.855 62.1769 127.155 66.4946 123.08 70.4345C122.714 70.7874 122.361 71.1199 122.024 71.4388L121.858 71.5964L118.292 70.581ZM112.908 68.6248C108.299 62.0867 111.01 57.9686 114.14 53.6919C116.783 50.0777 118.212 45.9831 118.292 41.9477C118.907 44.8954 119.373 47.9699 118.835 50.8196C118.477 52.712 117.922 55.1503 116.399 56.8988C113.081 60.7077 112.755 63.785 112.908 68.6248ZM115.283 71.2248L114.988 70.3863C114.961 70.3078 114.941 70.2275 114.919 70.149C114.896 70.0677 114.875 69.986 114.855 69.9058C114.004 66.5368 114.011 63.2781 116.637 60.0483C119.285 56.7916 120.594 52.7789 120.172 48.4529C123.102 54.7424 123.065 59.9225 119.921 63.6597C118.05 65.8849 117.078 67.864 116.608 69.8664L116.404 70.7315L116.378 70.8452L116.358 70.93C115.983 71.0374 115.65 71.0952 115.283 71.2248Z" fill="#CD1F2F"/>
<path fill-rule="evenodd" clip-rule="evenodd" d="M109.699 74.7956L110.945 76.8048L118.292 74.8988L125.649 76.8048L126.895 74.7956L118.293 72.5437L109.699 74.7956Z" fill="#005D64"/>
<path fill-rule="evenodd" clip-rule="evenodd" d="M118.291 186.755L117.927 186.756V186.747H117.798V186.756C116.81 186.753 112.164 186.757 112.042 186.417C110.522 182.175 108.059 180.953 105.093 181.355L108.757 173.661L108.809 173.551L108.842 173.474L108.848 173.371L108.751 173.527C106.709 176.806 101.412 181.125 99.1213 180.432C95.2421 179.369 92.3746 180.065 85.4402 180.717C89.8722 177.053 96.2904 174.596 100.791 171.799C105.57 167.637 105.426 162.789 103.547 159.52C103.362 159.178 103.155 158.859 102.914 158.549L102.908 158.543L102.906 158.539C102.454 157.926 102.017 157.55 101.399 157.011L101.392 157.004L101.385 156.997C101.302 156.918 101.204 156.837 101.047 156.744C100.799 156.572 100.545 156.42 100.289 156.291L100.287 156.291C100.189 156.24 100.089 156.193 99.9896 156.149L99.9845 156.147L99.9468 156.131L99.9088 156.115L99.9037 156.113L99.8323 156.084L99.8178 156.077L99.7946 156.068L99.7747 156.06L99.756 156.054L99.7313 156.044L99.7183 156.039L99.6797 156.025L99.6454 156.013L99.6415 156.011L99.6038 155.998L99.6021 155.997L99.5652 155.984L99.5593 155.982L99.5272 155.972L99.5159 155.968L99.489 155.959L99.4731 155.954L99.4507 155.948L99.43 155.941L99.4122 155.936L99.3866 155.928L99.3745 155.924L99.3438 155.915L99.3365 155.913L99.3002 155.903L99.2979 155.902L99.2599 155.892L99.2571 155.891L99.2214 155.882L99.214 155.88L99.1834 155.872L99.1706 155.869L99.1457 155.864L99.1284 155.859L99.1074 155.854L99.085 155.849L99.0689 155.846L99.0422 155.84L99.0312 155.838L98.9991 155.831L98.9923 155.83L98.9558 155.823L98.9544 155.822L98.9169 155.815L98.913 155.814L98.879 155.808L98.8702 155.807L98.8407 155.802L98.8274 155.8L98.803 155.796L98.7846 155.793L98.765 155.791L98.7418 155.787L98.7267 155.785L98.699 155.781L98.689 155.78L98.6562 155.776L98.6513 155.775L98.6134 155.772C96.7742 155.577 95.9885 153.617 93.9172 151.952H107.371L111.549 156.639H118.018H118.291H118.563H125.032L129.21 151.952H142.664C140.593 153.617 139.807 155.577 137.968 155.772L137.93 155.775L137.925 155.776L137.892 155.78L137.882 155.781L137.854 155.785L137.839 155.787L137.816 155.791L137.797 155.793L137.778 155.796L137.754 155.8L137.74 155.802L137.711 155.807L137.702 155.808L137.668 155.814L137.664 155.815L137.627 155.822L137.625 155.823L137.589 155.83L137.582 155.831L137.55 155.838L137.539 155.84L137.512 155.846L137.496 155.849L137.474 155.854L137.453 155.859L137.435 155.864L137.411 155.869L137.398 155.872L137.367 155.88L137.36 155.882L137.324 155.891L137.321 155.892L137.283 155.902L137.281 155.903L137.245 155.913L137.237 155.915L137.207 155.924L137.195 155.928L137.169 155.936L137.151 155.941L137.13 155.948L137.108 155.954L137.092 155.959L137.065 155.968L137.054 155.972L137.022 155.982L137.016 155.984L136.979 155.997L136.977 155.998L136.94 156.011L136.936 156.013L136.901 156.025L136.863 156.039L136.85 156.044L136.825 156.054L136.806 156.06L136.787 156.068L136.763 156.077L136.749 156.084L136.677 156.113L136.672 156.115L136.634 156.131L136.597 156.147L136.592 156.149C136.492 156.193 136.393 156.24 136.294 156.291L136.292 156.291C136.036 156.42 135.782 156.572 135.534 156.744C135.377 156.837 135.279 156.918 135.196 156.997L135.189 157.004L135.182 157.011C134.564 157.55 134.127 157.926 133.675 158.539L133.673 158.543L133.667 158.549C133.426 158.859 133.219 159.178 133.034 159.52C131.156 162.789 131.011 167.637 135.79 171.799C140.291 174.596 146.709 177.053 151.141 180.717C144.207 180.065 141.339 179.369 137.46 180.432C135.169 181.125 129.872 176.806 127.831 173.527L127.733 173.371L127.739 173.474L127.772 173.551L127.824 173.661L131.488 181.355C128.522 180.953 126.059 182.175 124.539 186.417C124.417 186.757 119.771 186.753 118.784 186.756V186.747H118.654V186.756L118.291 186.755ZM118.291 157.751H118.15H113.581C113.444 157.751 113.462 157.725 113.416 157.837L108.866 168.925C108.773 169.154 108.75 169.094 108.924 169.274C114.948 175.469 114.287 176.08 115.421 184.239C115.432 184.323 115.445 184.41 115.456 184.495C115.5 184.811 115.435 184.768 115.773 184.768H116.759H117.599H118.291H118.982H119.822H120.808C121.146 184.768 121.081 184.811 121.125 184.495C121.137 184.41 121.149 184.323 121.16 184.239C122.294 176.08 121.633 175.469 127.657 169.274C127.831 169.094 127.808 169.154 127.715 168.925L123.165 157.837C123.119 157.725 123.137 157.751 123 157.751H118.431H118.291Z" fill="#005D64"/>
<path fill-rule="evenodd" clip-rule="evenodd" d="M118.292 159.561H122.279C122.302 159.561 122.298 159.565 122.305 159.586L125.807 168.909C125.869 169.071 125.87 169.023 125.747 169.15C120.046 175.07 120.927 175.924 120.238 182.779C120.225 182.863 120.243 182.858 120.163 182.858H118.839L118.864 168.506C120.256 168.238 121.307 167.113 121.307 165.545C121.307 163.978 119.957 162.53 118.292 162.53C116.627 162.53 115.277 163.978 115.277 165.545C115.277 167.113 116.328 168.238 117.72 168.506L117.744 182.858H116.421C116.34 182.858 116.358 182.863 116.345 182.779C115.657 175.924 116.537 175.07 110.836 169.15C110.714 169.023 110.714 169.071 110.777 168.909L114.278 159.586C114.285 159.565 114.281 159.561 114.305 159.561H118.292Z" fill="#005D64"/>
<path fill-rule="evenodd" clip-rule="evenodd" d="M91.9464 94.6171C92.2987 95.3076 92.6771 96.0566 93.0884 96.8794C98.8598 108.431 103.503 115.107 105.164 119.501C106.371 122.695 105.784 124.72 103.928 127.541C103.926 127.549 103.922 127.556 103.918 127.562L103.89 127.599C103.767 127.784 103.639 127.973 103.506 128.166C101.143 132.222 101.82 142.869 109.26 148.004C109.332 148.054 109.405 148.103 109.478 148.149L109.351 149.916L113.497 154.346L115.078 154.34H116.18L116.181 154.337L117.396 154.332V147.995V86.9174V86.838C117.396 86.3453 117.798 85.9414 118.29 85.9414H118.291C118.783 85.9414 119.186 86.3453 119.186 86.838V86.9174V147.995V154.332L120.4 154.337L120.402 154.34H121.504L123.084 154.346L127.231 149.916L127.103 148.149C127.176 148.103 127.249 148.054 127.322 148.004C134.761 142.869 135.438 132.222 133.076 128.166C132.942 127.973 132.814 127.784 132.692 127.599L132.663 127.562C132.659 127.556 132.656 127.549 132.654 127.541C130.797 124.72 130.211 122.695 131.417 119.501C133.078 115.107 137.722 108.431 143.493 96.8794C143.904 96.0566 144.283 95.3076 144.635 94.6171C150.773 77.6248 151.273 59.9914 135.812 44.8484C135.746 44.7838 137.025 44.8818 139.312 45.777C148.704 49.4507 173.542 62.2191 172.918 77.6679C172.034 99.5673 161.6 109.267 143.192 132.258L143.199 132.424C152.121 124.274 168.508 108.977 173.685 97.3086C178.886 85.5862 176.773 80.1315 175.516 78.492L175.508 78.482L175.504 78.4772L175.5 78.4718L175.031 77.8428C175.174 77.9508 175.3 78.06 175.425 78.175L175.435 78.1847L175.446 78.1943C195.221 97.1533 194.594 118.673 173.377 126.367C162.307 130.382 152.61 132.414 144.352 137.345C157.225 133.176 176.78 132.788 187.85 120.5C189.431 118.487 189.738 116.968 190.32 114.669C190.473 113.926 190.579 113.392 190.66 113.317C191.232 112.795 192.565 132.748 186.644 142.933C180.268 153.898 151.277 144.288 141.663 144.305C149.271 147.116 173.606 157.629 183.598 147.984L183.734 147.858C184.173 147.438 184.587 147.009 184.828 146.453C184.809 146.994 184.699 147.498 184.573 147.958C184.458 148.379 184.323 148.687 184.116 149.074C184.086 149.132 184.052 149.19 184.017 149.251L184.011 149.262L184.01 149.264C183.925 149.419 183.832 149.584 183.729 149.757L183.686 149.838L183.685 149.831C182.677 151.495 180.812 153.892 177.964 156.563C166.241 167.555 152.857 160.426 142.956 155.237C144.389 153.561 145.998 151.476 147.323 149.916H130.749H127.231L122.565 84.9686C122.965 83.9387 125.097 81.9057 126.602 81.5446L128.188 78.8471L118.291 76.3025L108.394 78.8471L109.979 81.5446C111.483 81.9057 113.617 83.9387 114.016 84.9686L109.351 149.916H105.832H89.2583C90.5838 151.476 92.1927 153.561 93.6256 155.237C83.7239 160.426 70.3401 167.555 58.6177 156.563C55.7692 153.892 53.904 151.495 52.8969 149.831L52.8954 149.838L52.8524 149.757C52.7492 149.584 52.6559 149.419 52.5712 149.264L52.57 149.262L52.5641 149.251C52.5289 149.19 52.4952 149.132 52.4651 149.074C52.2582 148.687 52.1236 148.379 52.0079 147.958C51.8823 147.498 51.7721 146.994 51.7534 146.453C51.9946 147.009 52.4082 147.438 52.8472 147.858L52.983 147.984C62.9752 157.629 87.3109 147.116 94.9188 144.305C85.3048 144.288 56.3132 153.898 49.9378 142.933C44.0162 132.748 45.349 112.795 45.9211 113.317C46.0024 113.392 46.1079 113.926 46.2612 114.669C46.8438 116.968 47.1505 118.487 48.7313 120.5C59.8012 132.788 79.356 133.176 92.2293 137.345C83.9711 132.414 74.2741 130.382 63.2042 126.367C41.9877 118.673 41.3604 97.1533 61.1358 78.1943L61.1462 78.1847L61.1562 78.175C61.2809 78.06 61.4073 77.9508 61.5505 77.8428L61.081 78.4718L61.0771 78.4772L61.0731 78.482L61.0655 78.492C59.808 80.1315 57.6953 85.5862 62.8964 97.3086C68.073 108.977 84.4606 124.274 93.3827 132.424L93.3898 132.258C74.981 109.267 64.547 99.5673 63.6631 77.6679C63.0398 62.2191 87.8772 49.4507 97.269 45.777C99.5568 44.8818 100.836 44.7838 100.769 44.8484C85.3082 59.9914 85.8088 77.6248 91.9464 94.6171ZM134.216 161.727C143.761 174.479 160.933 177.36 168.285 167.601C171.347 163.537 172.755 162.412 171.205 163.433C162.534 169.143 151.152 161.564 142.721 155.51C141.954 156.395 141.246 157.143 140.671 157.606C139.373 158.652 137.049 157.325 136.007 158.531C135.24 159.419 134.619 160.532 134.216 161.727ZM102.366 161.727C92.8209 174.479 75.6486 177.36 68.2961 167.601C65.2344 163.537 63.8261 162.412 65.3767 163.433C74.0478 169.143 85.4298 161.564 93.8603 155.51C94.6271 156.395 95.3355 157.143 95.9106 157.606C97.2083 158.652 99.5324 157.325 100.574 158.531C101.341 159.419 101.963 160.532 102.366 161.727Z" fill="#005D64"/>
</g>
<defs>
<clipPath id="clip0_33_37">
<rect width="237" height="242" fill="white"/>
</clipPath>
</defs>
</svg>
