<svg width="64" height="64" viewBox="0 0 64 64" fill="none" xmlns="http://www.w3.org/2000/svg">
<path d="M20.6297 27.2073C17.507 24.0846 15.9457 20.3308 15.9457 15.9457C15.9457 11.5606 17.507 7.80675 20.6297 4.68405C23.7524 1.56135 27.5063 0 31.8914 0C36.2765 0 40.0303 1.56135 43.153 4.68405C46.2757 7.80675 47.8371 11.5606 47.8371 15.9457C47.8371 20.3308 46.2757 24.0846 43.153 27.2073C40.0303 30.33 36.2765 31.8914 31.8914 31.8914C27.5063 31.8914 23.7524 30.33 20.6297 27.2073ZM0 63.7828V52.6208C0 50.3618 0.582019 48.2862 1.74605 46.394C2.91009 44.5018 4.45416 43.056 6.37828 42.0568C10.4976 39.9971 14.6833 38.453 18.9355 37.4245C23.1877 36.3961 27.5063 35.8805 31.8914 35.8778C36.2765 35.8752 40.5951 36.3907 44.8473 37.4245C49.0995 38.4584 53.2852 40.0024 57.4045 42.0568C59.3313 43.0534 60.8767 44.4991 62.0407 46.394C63.2047 48.2889 63.7854 50.3645 63.7828 52.6208V63.7828H0Z" fill="white"/>
</svg>
