<svg width="45" height="45" viewBox="0 0 45 45" fill="none" xmlns="http://www.w3.org/2000/svg">
<path d="M9 27H13.5C13.5 24.7875 14.3062 22.9215 15.9187 21.402C17.5312 19.8825 19.4625 19.1235 21.7125 19.125C23.0625 19.125 24.3187 19.4347 25.4812 20.0542C26.6437 20.6737 27.6 21.489 28.35 22.5H24.75V27H36V15.75H31.5V19.2375C30.3 17.8125 28.866 16.6875 27.198 15.8625C25.53 15.0375 23.7015 14.625 21.7125 14.625C18.15 14.625 15.141 15.825 12.6855 18.225C10.23 20.625 9.0015 23.55 9 27ZM22.5 45C19.3875 45 16.4625 44.409 13.725 43.227C10.9875 42.045 8.60625 40.4422 6.58125 38.4187C4.55625 36.3952 2.9535 34.014 1.773 31.275C0.592503 28.536 0.00150285 25.611 2.8481e-06 22.5C-0.00149715 19.389 0.589503 16.464 1.773 13.725C2.9565 10.986 4.55925 8.60475 6.58125 6.58125C8.60325 4.55775 10.9845 2.955 13.725 1.773C16.4655 0.591 19.3905 0 22.5 0C25.6095 0 28.5345 0.591 31.275 1.773C34.0155 2.955 36.3967 4.55775 38.4187 6.58125C40.4407 8.60475 42.0442 10.986 43.2292 13.725C44.4142 16.464 45.0045 19.389 45 22.5C44.9955 25.611 44.4045 28.536 43.227 31.275C42.0495 34.014 40.4467 36.3952 38.4187 38.4187C36.3907 40.4422 34.0095 42.0457 31.275 43.2292C28.5405 44.4127 25.6155 45.003 22.5 45Z" fill="white"/>
</svg>
