<svg width="329" height="329" viewBox="0 0 329 329" fill="none" xmlns="http://www.w3.org/2000/svg">
<rect width="329" height="329" rx="25" fill="#005D64"/>
<path d="M52 247.525V78.719H82.8406V247.525H52Z" fill="white"/>
<path d="M198.56 250.244C186.163 250.244 174.598 248.054 163.864 243.673C153.131 239.292 143.758 233.174 135.745 225.32C127.733 217.465 121.459 208.25 116.923 197.676C112.539 186.951 110.347 175.395 110.347 163.009C110.347 150.471 112.539 138.915 116.923 128.341C121.307 117.767 127.506 108.553 135.518 100.698C143.531 92.8428 152.904 86.8005 163.638 82.571C174.371 78.1903 186.012 76 198.56 76C211.108 76 222.749 78.1903 233.483 82.571C244.216 86.9516 253.589 93.0694 261.602 100.924C269.614 108.628 275.813 117.767 280.197 128.341C284.732 138.915 287 150.471 287 163.009C287 175.395 284.732 186.951 280.197 197.676C275.662 208.25 269.388 217.465 261.375 225.32C253.363 233.174 243.989 239.292 233.256 243.673C222.673 248.054 211.108 250.244 198.56 250.244ZM198.56 222.147C206.875 222.147 214.51 220.712 221.464 217.842C228.418 214.821 234.465 210.667 239.605 205.38C244.897 200.093 248.903 193.824 251.624 186.573C254.496 179.323 255.933 171.468 255.933 163.009C255.933 154.549 254.496 146.77 251.624 139.67C248.903 132.42 244.897 126.151 239.605 120.864C234.465 115.426 228.418 111.272 221.464 108.402C214.51 105.532 206.875 104.097 198.56 104.097C190.396 104.097 182.837 105.532 175.883 108.402C168.929 111.272 162.806 115.426 157.515 120.864C152.375 126.151 148.369 132.42 145.496 139.67C142.624 146.77 141.188 154.549 141.188 163.009C141.188 171.468 142.624 179.323 145.496 186.573C148.369 193.824 152.375 200.093 157.515 205.38C162.806 210.667 168.929 214.821 175.883 217.842C182.837 220.712 190.396 222.147 198.56 222.147Z" fill="white"/>
</svg>
