<svg width="18" height="24" viewBox="0 0 18 24" fill="none" xmlns="http://www.w3.org/2000/svg">
<path fill-rule="evenodd" clip-rule="evenodd" d="M8.55865 3.53086e-08C8.69306 -3.72879e-05 8.82595 0.0295154 8.94856 0.0867094C9.07116 0.143903 9.1807 0.227439 9.26995 0.331808L16.8774 9.21953C16.9991 9.36187 17.0786 9.5377 17.1064 9.72586C17.1341 9.91403 17.1089 10.1065 17.0337 10.2801C16.9586 10.4538 16.8367 10.6011 16.6828 10.7045C16.5288 10.8079 16.3494 10.8628 16.1661 10.8628H0.951188C0.767885 10.8628 0.588474 10.8079 0.434552 10.7045C0.280629 10.6011 0.158756 10.4538 0.0836015 10.2801C0.0084472 10.1065 -0.0167848 9.91403 0.0109431 9.72586C0.038671 9.5377 0.118177 9.36187 0.23989 9.21953L7.84736 0.331808C7.9366 0.227439 8.04614 0.143903 8.16875 0.0867094C8.29136 0.0295154 8.42425 -3.72879e-05 8.55865 3.53086e-08ZM0.083937 13.4205C0.159068 13.2469 0.28089 13.0996 0.434747 12.9962C0.588603 12.8928 0.767942 12.8378 0.951188 12.8378H16.1661C16.3494 12.8378 16.5288 12.8927 16.6828 12.9961C16.8367 13.0995 16.9586 13.2468 17.0337 13.4205C17.1089 13.5941 17.1341 13.7866 17.1064 13.9747C17.0786 14.1629 16.9991 14.3387 16.8774 14.4811L9.26995 23.3688C9.18073 23.4732 9.0712 23.5568 8.94859 23.614C8.82599 23.6713 8.69308 23.7009 8.55865 23.7009C8.42422 23.7009 8.29132 23.6713 8.16871 23.614C8.0461 23.5568 7.93658 23.4732 7.84736 23.3688L0.23989 14.4811C0.118232 14.3387 0.0387881 14.1628 0.01112 13.9747C-0.0165482 13.7865 0.00873858 13.594 0.083937 13.4205Z" fill="white"/>
</svg>
