<svg width="18" height="11" viewBox="0 0 18 11" fill="none" xmlns="http://www.w3.org/2000/svg">
<path fill-rule="evenodd" clip-rule="evenodd" d="M0.0837141 0.58264C0.158845 0.409072 0.280667 0.261745 0.434524 0.158381C0.588381 0.0550159 0.767719 1.63103e-05 0.950965 3.53356e-08H16.1659C16.3492 -5.08773e-05 16.5286 0.0549165 16.6825 0.158285C16.8365 0.261654 16.9583 0.409018 17.0335 0.58264C17.1086 0.756261 17.1339 0.94874 17.1061 1.13691C17.0784 1.32507 16.9989 1.50091 16.8772 1.64324L9.26973 10.531C9.18051 10.6354 9.07098 10.719 8.94837 10.7762C8.82576 10.8335 8.69286 10.8631 8.55843 10.8631C8.424 10.8631 8.2911 10.8335 8.16849 10.7762C8.04588 10.719 7.93635 10.6354 7.84713 10.531L0.239667 1.64324C0.118009 1.50087 0.0385652 1.32502 0.010897 1.13685C-0.0167711 0.948688 0.00851564 0.756229 0.0837141 0.58264Z" fill="white"/>
</svg>
