<svg width="18" height="11" viewBox="0 0 18 11" fill="none" xmlns="http://www.w3.org/2000/svg">
<path fill-rule="evenodd" clip-rule="evenodd" d="M8.55865 3.53086e-08C8.69306 -3.72879e-05 8.82595 0.0295154 8.94856 0.0867094C9.07116 0.143903 9.1807 0.227439 9.26995 0.331808L16.8774 9.21953C16.9991 9.36186 17.0786 9.5377 17.1064 9.72586C17.1341 9.91403 17.1089 10.1065 17.0337 10.2801C16.9586 10.4538 16.8367 10.6011 16.6828 10.7045C16.5288 10.8079 16.3494 10.8628 16.1661 10.8628H0.951188C0.767885 10.8628 0.588474 10.8079 0.434552 10.7045C0.280629 10.6011 0.158756 10.4538 0.0836015 10.2801C0.0084472 10.1065 -0.0167848 9.91403 0.0109431 9.72586C0.038671 9.5377 0.118177 9.36186 0.23989 9.21953L7.84736 0.331808C7.9366 0.227439 8.04614 0.143903 8.16875 0.0867094C8.29136 0.0295154 8.42425 -3.72879e-05 8.55865 3.53086e-08Z" fill="white"/>
</svg>
