<svg width="24" height="24" viewBox="0 0 24 24" fill="none" xmlns="http://www.w3.org/2000/svg">
<path d="M2.63343 10.5337C1.90924 10.5337 1.2895 10.2761 0.774229 9.76082C0.258954 9.24554 0.000877811 8.62537 0 7.9003V2.63343C0 1.90924 0.258076 1.2895 0.774229 0.774229C1.29038 0.258954 1.91012 0.000877811 2.63343 0H7.9003C8.62449 0 9.24466 0.258076 9.76082 0.774229C10.277 1.29038 10.5346 1.91012 10.5337 2.63343V7.9003C10.5337 8.62449 10.2761 9.24466 9.76082 9.76082C9.24554 10.277 8.62537 10.5346 7.9003 10.5337H2.63343ZM2.63343 23.7009C1.90924 23.7009 1.2895 23.4432 0.774229 22.928C0.258954 22.4127 0.000877811 21.7925 0 21.0675V15.8006C0 15.0764 0.258076 14.4567 0.774229 13.9414C1.29038 13.4261 1.91012 13.168 2.63343 13.1672H7.9003C8.62449 13.1672 9.24466 13.4252 9.76082 13.9414C10.277 14.4575 10.5346 15.0773 10.5337 15.8006V21.0675C10.5337 21.7916 10.2761 22.4118 9.76082 22.928C9.24554 23.4441 8.62537 23.7018 7.9003 23.7009H2.63343ZM15.8006 10.5337C15.0764 10.5337 14.4567 10.2761 13.9414 9.76082C13.4261 9.24554 13.168 8.62537 13.1672 7.9003V2.63343C13.1672 1.90924 13.4252 1.2895 13.9414 0.774229C14.4575 0.258954 15.0773 0.000877811 15.8006 0H21.0675C21.7916 0 22.4118 0.258076 22.928 0.774229C23.4441 1.29038 23.7018 1.91012 23.7009 2.63343V7.9003C23.7009 8.62449 23.4432 9.24466 22.928 9.76082C22.4127 10.277 21.7925 10.5346 21.0675 10.5337H15.8006ZM15.8006 23.7009C15.0764 23.7009 14.4567 23.4432 13.9414 22.928C13.4261 22.4127 13.168 21.7925 13.1672 21.0675V15.8006C13.1672 15.0764 13.4252 14.4567 13.9414 13.9414C14.4575 13.4261 15.0773 13.168 15.8006 13.1672H21.0675C21.7916 13.1672 22.4118 13.4252 22.928 13.9414C23.4441 14.4575 23.7018 15.0773 23.7009 15.8006V21.0675C23.7009 21.7916 23.4432 22.4118 22.928 22.928C22.4127 23.4441 21.7925 23.7018 21.0675 23.7009H15.8006Z" fill="white"/>
</svg>
