<svg width="47" height="45" viewBox="0 0 47 45" fill="none" xmlns="http://www.w3.org/2000/svg">
<path d="M4.7 45C3.4075 45 2.30143 44.5366 1.3818 43.6097C0.462167 42.6829 0.00156667 41.5674 0 40.2632V14.2105C0 12.9079 0.4606 11.7932 1.3818 10.8663C2.303 9.93947 3.40907 9.47526 4.7 9.47368H14.1V4.73684C14.1 3.43421 14.5606 2.31947 15.4818 1.39263C16.403 0.46579 17.5091 0.00157895 18.8 0H28.2C29.4925 0 30.5993 0.464211 31.5205 1.39263C32.4417 2.32105 32.9016 3.43579 32.9 4.73684V9.47368H42.3C43.5925 9.47368 44.6993 9.93789 45.6205 10.8663C46.5417 11.7947 47.0016 12.9095 47 14.2105V40.2632C47 41.5658 46.5402 42.6813 45.6205 43.6097C44.7009 44.5382 43.5941 45.0016 42.3 45H4.7ZM18.8 9.47368H28.2V4.73684H18.8V9.47368Z" fill="#111111"/>
</svg>
